<svg width="189" height="35" fill="none" xmlns="http://www.w3.org/2000/svg"><path opacity=".7" d="M22 35c7.732 0 14-6.268 14-14S29.732 7 22 7 8 13.268 8 21s6.268 14 14 14z" fill="#C8DBFB"/><path opacity=".7" d="M14 28c7.732 0 14-6.268 14-14S21.732 0 14 0 0 6.268 0 14s6.268 14 14 14z" fill="#0056EC"/><path d="M55.28 20.52v.912c.02.256.04.528.07.816l1.66.24v.84c-.19.096-.46.192-.79.288-.32.096-.67.192-1.04.288-.35.08-.7.144-1.05.192-.35.064-.67.112-.94.144h-.81a3.476 3.476 0 01-.29-1.104c-.03-.368-.06-.816-.07-1.344h-.12c-.08.32-.22.632-.41.936a3.32 3.32 0 01-.75.792c-.28.224-.63.408-1.03.552-.4.144-.85.216-1.34.216-.53 0-1.02-.08-1.47-.24a3.69 3.69 0 01-1.17-.672c-.34-.288-.6-.632-.79-1.032-.2-.416-.29-.88-.29-1.392 0-.72.13-1.312.41-1.776.27-.464.69-.84 1.27-1.128.59-.304 1.34-.528 2.25-.672.93-.144 2.05-.248 3.36-.312.13-1.376.08-2.384-.16-3.024-.24-.64-.76-.96-1.56-.96-.5 0-.96.08-1.37.24l-1.13 2.88h-1.06c-.12-.192-.25-.408-.38-.648-.11-.256-.22-.52-.34-.792a28.34 28.34 0 01-.26-.864 8.967 8.967 0 01-.14-.84c.6-.416 1.39-.744 2.35-.984.96-.24 1.97-.36 3.05-.36.91 0 1.65.104 2.23.312.57.192 1.02.464 1.34.816.34.336.57.736.7 1.2.13.464.19.96.19 1.488 0 .96-.02 1.832-.07 2.616-.03.768-.05 1.56-.05 2.376zm-5.4 1.848c.34 0 .62-.064.86-.192a2.2 2.2 0 00.6-.456c.18-.176.31-.368.39-.576.09-.208.17-.392.21-.552v-2.4c-.75.016-1.36.064-1.84.144-.48.08-.86.216-1.13.408-.27.176-.47.408-.58.696-.09.272-.14.608-.14 1.008 0 .608.14 1.08.43 1.416.29.336.69.504 1.2.504zM64.49 28.8h-6.63v-.936a8.94 8.94 0 011.59-.576V13.704l-1.59-.192v-.936c.26-.112.57-.216.94-.312.38-.096.78-.176 1.18-.24.4-.08.78-.144 1.15-.192l.96-.12h.81V14.4h.03c.27-.768.69-1.408 1.27-1.92.59-.512 1.41-.768 2.45-.768.7 0 1.33.12 1.89.36.58.224 1.06.584 1.44 1.08.4.48.71 1.104.92 1.872.22.752.33 1.656.33 2.712 0 1.008-.14 1.92-.43 2.736-.27.816-.67 1.504-1.2 2.064-.51.56-1.14.992-1.9 1.296-.73.304-1.57.456-2.52.456-.54 0-.97-.04-1.29-.12a4.197 4.197 0 01-.99-.36v3.48c.26.032.52.088.77.168.26.096.53.232.82.408v.936zm.77-15.168c-.55 0-1.04.192-1.47.576-.41.384-.71.976-.89 1.776v6.384c.26.192.53.336.82.432.29.08.66.12 1.13.12.91 0 1.58-.44 2.01-1.32.44-.88.65-2.168.65-3.864 0-1.312-.17-2.32-.5-3.024-.32-.72-.91-1.08-1.75-1.08zM79.11 28.8h-6.62v-.936a8.584 8.584 0 011.58-.576V13.704l-1.58-.192v-.936c.25-.112.57-.216.93-.312.39-.096.78-.176 1.18-.24.4-.08.78-.144 1.15-.192l.96-.12h.82V14.4h.02c.27-.768.7-1.408 1.27-1.92.6-.512 1.41-.768 2.45-.768.71 0 1.34.12 1.9.36.57.224 1.05.584 1.44 1.08.4.48.7 1.104.91 1.872.22.752.34 1.656.34 2.712 0 1.008-.15 1.92-.44 2.736-.27.816-.67 1.504-1.2 2.064a5.11 5.11 0 01-1.89 1.296c-.74.304-1.58.456-2.52.456-.55 0-.98-.04-1.3-.12-.3-.064-.63-.184-.98-.36v3.48c.25.032.51.088.77.168.25.096.52.232.81.408v.936zm.77-15.168c-.54 0-1.03.192-1.46.576-.42.384-.72.976-.89 1.776v6.384c.25.192.53.336.81.432.29.08.67.12 1.13.12.91 0 1.59-.44 2.02-1.32.43-.88.65-2.168.65-3.864 0-1.312-.17-2.32-.51-3.024-.32-.72-.9-1.08-1.75-1.08zm8.24 8.664c0-.576.19-1.04.55-1.392.37-.352.86-.528 1.47-.528s1.1.176 1.49.528c.38.352.57.816.57 1.392s-.19 1.04-.57 1.392c-.39.336-.88.504-1.49.504s-1.1-.168-1.47-.504c-.36-.352-.55-.816-.55-1.392zm16.53-.24c-.11.32-.29.616-.55.888-.25.256-.57.488-.93.696-.36.208-.76.368-1.23.48-.45.112-.92.168-1.41.168-1.06 0-1.97-.144-2.74-.432-.75-.304-1.38-.728-1.87-1.272-.5-.56-.87-1.224-1.11-1.992-.24-.784-.36-1.648-.36-2.592 0-2.032.56-3.584 1.66-4.656 1.12-1.088 2.7-1.632 4.75-1.632.79 0 1.51.088 2.16.264.66.16 1.2.352 1.63.576-.03.272-.08.576-.14.912-.05.32-.11.648-.19.984-.07.32-.15.64-.24.96-.1.304-.19.56-.29.768h-1.18l-1-2.856c-.12-.08-.24-.136-.36-.168-.13-.048-.32-.072-.58-.072-.42 0-.78.08-1.08.24-.3.144-.57.4-.79.768-.21.368-.37.856-.48 1.464-.1.608-.15 1.36-.15 2.256 0 .656.08 1.264.22 1.824.14.544.36 1.024.65 1.44.3.4.68.72 1.13.96.44.224.97.336 1.58.336.56 0 1.05-.08 1.46-.24.42-.16.77-.352 1.06-.576l.38.504zm7.65-7.296c-.2.096-.42.256-.68.48-.25.224-.48.592-.69 1.104v6.144c.32.032.64.096.96.192.32.08.64.208.96.384V24h-6.96v-.936c.29-.16.56-.28.81-.36.26-.08.52-.152.77-.216v-8.784l-1.58-.192v-.936c.25-.112.57-.216.93-.312.39-.096.78-.176 1.18-.24.4-.08.78-.144 1.15-.192l.96-.12h.82v3.192h.09c.13-.352.32-.72.56-1.104.25-.384.55-.736.88-1.056.34-.32.71-.576 1.11-.768.4-.192.81-.28 1.25-.264.17.224.32.544.45.96.13.4.23.784.31 1.152v.936h-3.28zm15.04 7.224c-.13.272-.34.552-.63.84-.27.272-.61.52-1.03.744-.4.208-.87.376-1.42.504a6.47 6.47 0 01-1.72.216c-1 0-1.88-.144-2.64-.432-.77-.304-1.41-.728-1.92-1.272a5.623 5.623 0 01-1.18-1.992c-.26-.768-.38-1.632-.38-2.592 0-2.048.53-3.608 1.6-4.68 1.08-1.072 2.56-1.608 4.47-1.608.81 0 1.57.112 2.28.336.72.224 1.31.592 1.77 1.104.48.512.81 1.184.99 2.016.19.832.18 1.848-.03 3.048h-7.36c.01 1.264.33 2.272.96 3.024.64.752 1.57 1.128 2.8 1.128.53 0 1.08-.08 1.64-.24.57-.16 1.02-.368 1.34-.624l.46.48zm-4.95-8.904c-.32 0-.61.056-.86.168-.24.112-.46.32-.65.624-.18.288-.32.688-.43 1.2-.11.496-.19 1.128-.24 1.896h3.86c.11-1.248.04-2.208-.21-2.88-.26-.672-.75-1.008-1.47-1.008zm17.45 7.44v.912c.02.256.04.528.07.816l1.66.24v.84c-.19.096-.46.192-.79.288-.32.096-.67.192-1.03.288-.36.08-.71.144-1.06.192-.35.064-.66.112-.94.144h-.81a3.476 3.476 0 01-.29-1.104c-.03-.368-.06-.816-.07-1.344h-.12c-.08.32-.22.632-.41.936a3.48 3.48 0 01-.74.792c-.29.224-.64.408-1.04.552-.4.144-.84.216-1.34.216-.53 0-1.02-.08-1.46-.24a3.74 3.74 0 01-1.18-.672c-.34-.288-.6-.632-.79-1.032-.19-.416-.29-.88-.29-1.392 0-.72.14-1.312.41-1.776.27-.464.69-.84 1.27-1.128.59-.304 1.34-.528 2.26-.672.92-.144 2.04-.248 3.36-.312.12-1.376.07-2.384-.17-3.024-.24-.64-.76-.96-1.56-.96-.5 0-.95.08-1.37.24l-1.13 2.88h-1.05a7.695 7.695 0 01-.39-.648c-.11-.256-.22-.52-.33-.792-.1-.288-.19-.576-.27-.864a8.968 8.968 0 01-.14-.84c.61-.416 1.39-.744 2.35-.984.96-.24 1.98-.36 3.05-.36.91 0 1.65.104 2.23.312.58.192 1.02.464 1.34.816.34.336.57.736.7 1.2.13.464.19.96.19 1.488 0 .96-.02 1.832-.07 2.616-.03.768-.05 1.56-.05 2.376zm-5.4 1.848c.34 0 .63-.064.87-.192a2.2 2.2 0 00.6-.456c.17-.176.3-.368.38-.576.1-.208.17-.392.22-.552v-2.4c-.76.016-1.37.064-1.85.144-.48.08-.86.216-1.13.408-.27.176-.46.408-.58.696-.09.272-.14.608-.14 1.008 0 .608.14 1.08.43 1.416.29.336.69.504 1.2.504zm7.67-9.792a6.36 6.36 0 011.92-.816V9.816c.13-.096.44-.232.94-.408a9.77 9.77 0 011.7-.456h.82V12h3.17v1.512h-3.17v6.216c0 .992.12 1.68.36 2.064.26.384.67.576 1.25.576.29 0 .61-.016.96-.048.37-.048.7-.128 1.01-.24l.16.792c-.14.144-.36.296-.64.456a7.712 7.712 0 01-2.14.816c-.42.096-.86.144-1.32.144-1.04 0-1.82-.272-2.33-.816-.51-.544-.77-1.424-.77-2.64v-7.32h-1.92v-.936zM158.88 24h-6.63v-.936c.24-.128.49-.232.75-.312.25-.096.53-.184.84-.264v-8.784l-1.59-.192v-.936c.24-.096.54-.192.89-.288.37-.096.75-.176 1.15-.24.4-.08.79-.144 1.18-.192a18.2 18.2 0 011.01-.144h.81v10.776c.32.08.61.168.87.264.25.08.49.184.72.312V24zm-5.45-15.936c0-.56.19-1 .57-1.32.39-.32.88-.48 1.49-.48s1.11.16 1.49.48c.38.32.58.76.58 1.32 0 .544-.2.976-.58 1.296-.38.32-.88.48-1.49.48s-1.1-.16-1.49-.48c-.38-.32-.57-.752-.57-1.296zM160.22 18c0-.976.14-1.848.43-2.616.31-.784.73-1.448 1.27-1.992.56-.544 1.24-.96 2.02-1.248.78-.288 1.67-.432 2.66-.432 1.12 0 2.08.16 2.88.48.82.304 1.48.736 2 1.296a4.93 4.93 0 011.15 1.992c.24.768.36 1.608.36 2.52 0 .976-.15 1.856-.43 2.64a5.337 5.337 0 01-1.28 1.968c-.54.544-1.21.96-2.01 1.248-.79.288-1.67.432-2.67.432-1.08 0-2.03-.152-2.83-.456-.8-.32-1.46-.752-1.99-1.296a5.344 5.344 0 01-1.18-1.992 8.33 8.33 0 01-.38-2.544zm3.72 0c0 .72.04 1.384.12 1.992.1.592.26 1.096.48 1.512.22.416.53.744.91.984.39.224.88.336 1.49.336.35 0 .67-.08.96-.24.29-.176.54-.448.74-.816.21-.384.36-.88.46-1.488.11-.624.17-1.384.17-2.28 0-.736-.05-1.4-.15-1.992-.08-.592-.23-1.096-.45-1.512-.21-.416-.5-.736-.87-.96-.36-.24-.83-.36-1.39-.36-.41 0-.77.088-1.08.264-.3.16-.56.432-.77.816-.2.368-.36.864-.48 1.488a15.7 15.7 0 00-.14 2.256zm24.95 6h-6.36v-.936c.21-.112.41-.208.6-.288.21-.096.45-.192.72-.288v-5.64c0-1.008-.14-1.792-.43-2.352-.29-.576-.8-.864-1.53-.864-.61 0-1.14.2-1.59.6-.43.384-.76.912-.98 1.584v6.672c.25.064.48.144.67.24.21.08.42.192.65.336V24h-6.36v-.936c.4-.208.93-.4 1.58-.576v-8.784l-1.58-.192v-.936c.21-.096.48-.184.81-.264.34-.096.7-.184 1.08-.264.4-.08.8-.144 1.2-.192.42-.064.8-.112 1.13-.144h.82v2.472h.02c.34-.672.84-1.248 1.51-1.728.68-.496 1.49-.744 2.45-.744.63 0 1.19.08 1.68.24.5.144.91.408 1.25.792.35.384.62.904.79 1.56.19.64.29 1.456.29 2.448v5.736c.64.112 1.17.304 1.58.576V24z" fill="#000"/></svg>