
<svg width="514" height="439" fill="none" xmlns="http://www.w3.org/2000/svg"><g clip-path="url(#clip0)"><path d="M107.996 55.816c16.916 1.138 23.999-10.413 31.937-25.258 21.758-40.635 70.222-36.724 86.478-11.703 11.512 17.728 36.345 14.076 56.424 7.14 19.764-6.826 53.445-13.382 80.282-5.222 23.436 7.13 33.042 32.833 54.41 31.25 46.601-3.445 70.091 42.576 61.644 62.655-5.513 13.101-8.242 27.762-3.769 41.242 4.927 14.845 16.201 26.602 25.309 39.367 9.108 12.765 16.44 28.726 11.913 43.702-3.877 12.819-15.432 21.683-22.602 33.006-22.277 35.185-.238 89.116-29.923 118.449-21.248 20.989-55.882 16.146-85.611 20.155-24.789 3.337-48.117 13.762-72.799 17.836-49.98 8.268-100.447-9.937-151.11-10.457-17.848-.184-36.031 1.81-53.316-2.59-23.067-5.873-42.691-23.633-50.695-45.858-11.046-30.666-.584-66.164-13.05-96.289C23.36 248.698-1.495 228.727.076 202.244c.974-16.493 12.226-30.276 19.97-44.905 11.501-21.726-3.736-107.656 87.95-101.523zm147.482-39.811c-4.451 0-8.047 2.763-8.047 6.166 0 3.402 3.618 5.873 8.047 6.165 14.458.954 14.458-4.887 14.458-8.3 0-5.44-10.018-4.031-14.458-4.031zM402.3 42.315c3.866 3.196 8.794 5.104 13.819 5.364 1.343.065 2.805-.022 3.833-.867 1.278-1.051 1.419-3.208.282-4.41-.715-.759-1.754-1.095-2.729-1.496-1.657-.672-3.271-1.636-4.213-3.142-.271-.434-.509-.943-.953-1.192C409.556 35 397.21 38.11 402.3 42.315zm24.627 5.45c1.278.445 2.664.033 3.953-.379.823-.27 1.83-.856 1.614-1.68-.109-.4-.477-.66-.845-.856-1.69-.899-3.877-1.57-5.567-.411-1.7 1.148-.422 2.893.845 3.326zm58.796 116.238c.216 1.918 1.408 3.576 2.545 5.137 2.209 3.012 4.451 6.068 7.364 8.419 1.235.997 2.664 1.886 4.256 1.94 1.451.054 2.838-.607 4.007-1.452 2.859-2.048 4.787-5.331 5.188-8.81.541-4.768-1.679-9.416-4.256-13.48-1.603-2.514-3.466-5.028-6.13-6.371-4.484-2.265-7.44-.293-8.696 3.684-1.138 3.662-4.744 6.859-4.278 10.933zM8.793 275.073c-2.36 2.08-.227 8.17.466 12.19.206 1.203.488 2.449 1.246 3.414 1.04 1.311 2.772 1.853 4.386 2.329 2.87.835 6.357 1.539 8.556-.476 1.624-1.496 1.862-3.945 1.851-6.145 0-2.015-.108-4.02-.324-6.024-.098-.965-.239-1.951-.759-2.774-.66-1.051-1.83-1.658-2.967-2.146-4.105-1.734-10.094-2.438-12.454-.368zM153.07 427.611c-1.397.282-3.065.889-3.271 2.287-.162 1.159.802 2.145 1.744 2.839 7.7 5.754 18.075 6.122 27.714 6.252 1.126.011 2.296.022 3.325-.411 2.057-.867 3.054-3.587 2.09-5.592-.347-.737-.899-1.354-1.484-1.918-7.732-7.553-20.468-5.385-30.118-3.457zm192.405-3.89c-8.696 6.361.097 12.05 11.079 7.835 5.913-2.276 11.588-4.519 17.653-6.036 1.96-.488 13.797-3.056 13.797-5.71 0-7.055-13.332-5.386-21.725-4.216-6.768.943-13.635 2.883-20.804 8.127z" fill="#ECF3FF"/><path d="M182.062 405.332c23.118 0 41.858-1.751 41.858-3.911 0-2.161-18.74-3.912-41.858-3.912-23.117 0-41.857 1.751-41.857 3.912 0 2.16 18.74 3.911 41.857 3.911zM397.091 405.332c23.117 0 41.858-1.751 41.858-3.911 0-2.161-18.741-3.912-41.858-3.912-23.118 0-41.858 1.751-41.858 3.912 0 2.16 18.74 3.911 41.858 3.911z" fill="#C8DBFB"/><path d="M485.528 125.947a57.32 57.32 0 00-.39-2.135" stroke="#C8DBFB" stroke-linecap="round" stroke-linejoin="round"/><path d="M484.109 119.619c-7.462-25.443-31.277-22.983-52.796-22.94-23.165.043-381.766.791-381.766.791-36.042.076-32.544 52.132-4.332 52.067 16.223-.032 22.396 30.449-5.653 30.504-16.83.032-17.371 21.379-6.054 25.659" stroke="#C8DBFB" stroke-linecap="round" stroke-linejoin="round" stroke-dasharray="3.99 3.99"/><path d="M35.587 206.253c.682.119 1.408.184 2.166.173" stroke="#C8DBFB" stroke-linecap="round" stroke-linejoin="round"/><path d="M42.172 205.44a5.199 5.199 0 01-4.246 5.992 5.197 5.197 0 01-5.989-4.247 5.2 5.2 0 014.246-5.993c2.826-.476 5.512 1.431 5.989 4.248zM490.629 128.288a5.179 5.179 0 01-6.032 4.171 5.182 5.182 0 01-4.17-6.035 5.18 5.18 0 016.033-4.172c2.815.509 4.678 3.207 4.169 6.036zM95.044 167.536c-.748 4.215-1.841 8.333-3.173 12.396-2.87 8.767-6.834 17.208-10.841 25.541-2.09 4.356-10.57 14.433-15.119 16.351.53-11.367.574-24.641-.747-36.116-1.267-11.053 2.707-19.429-1.625-29.68-.552-1.311-1.126-2.622-1.7-3.933-2.155-4.877-4.289-9.775-4.96-15.03-.866-6.664 1.202-14.26 6.964-17.728 4.147-2.492 9.552-2.362 13.981-.401 4.43 1.962 7.982 5.548 10.678 9.568 7.549 11.227 8.913 25.725 6.542 39.032z" fill="#5193F4"/><path d="M74.9 130.726c8.48 11.984 9.216 25.941 9.953 40.602.736 14.662-2.783 29.518-10.029 42.283" stroke="#0B43A4" stroke-miterlimit="10" stroke-linecap="round" stroke-linejoin="round"/><path d="M74.543 351.759c-5.946-5.255-11.957-10.587-16.354-17.197-3.823-5.753-6.292-12.288-9.627-18.345-2.156-3.912-4.712-7.693-5.957-11.985-1.245-4.291-.953-9.384 2.101-12.645 3.184-3.414 8.653-3.934 12.974-2.178 4.321 1.755 7.625 5.396 10.137 9.319a44.453 44.453 0 016.52 17.262c.844 5.548.628 11.226 1.494 16.774.802 5.168 2.545 10.131 4.733 14.867 1.982 4.291 7.018 11.952 8.296 16.351-3.563 1.767-11.783-9.98-14.317-12.223z" fill="#00AD9F"/><path d="M53.76 297.254c5.653 2.471 7.895 9.221 9.075 15.279 1.343 6.892 1.04 14.358 4.202 20.632 5.957 11.822 13.7 25.269 19.462 29.289" stroke="#00AD9F" stroke-miterlimit="10" stroke-linecap="round" stroke-linejoin="round"/><path d="M45.29 335.592c-4.927-1.951-11.522-2.752-14.685 1.506-2.642 3.565-1.278 8.626.553 12.667 1.548 3.414 3.509 6.892 6.758 8.745 2.22 1.268 4.83 1.647 7.375 1.951 7.093.845 14.23 1.257 21.378 1.235 8.274-.022 18.303 3.359 25.158 8.528-8.794-16.341-29.934-28.076-46.536-34.632z" fill="#0056EC"/><path d="M36.638 346.211c6.281.271 12.617.705 18.638 2.492 6.162 1.821 29.869 12.711 33.573 17.338" stroke="#0B43A4" stroke-miterlimit="10" stroke-linecap="round" stroke-linejoin="round"/><path d="M99.094 302.043c-6.422-10.055-17.404-17.077-29.22-18.67-8.728-1.17-17.706.455-26.327-1.354-9.054-1.897-17.22-7.737-21.941-15.702-4.722-7.964-5.957-17.912-3.303-26.787 2.025-6.74 6.65-13.133 13.342-15.289 3.65-1.17 7.635-1.008 11.36-.119 3.445.823 6.64 2.264 9.585 4.139 6.736 4.269 12.184 10.836 16.278 17.814 3.714 6.339 12.877 16.211 19.115 22.637 3.66 3.749 6.313 6.317 6.313 6.317 4.267 5.332 2.264 20.675 4.798 27.014z" fill="#52D2BC"/><path d="M29.685 243.735c20.977 9.47 43.85 21.889 58.73 39.465" stroke="#00AD9F" stroke-miterlimit="10" stroke-linecap="round" stroke-linejoin="round"/><path opacity=".2" d="M90.43 280.837s-31.255-25.356-37.85-52.565c6.736 4.269 12.183 10.836 16.277 17.814 3.715 6.339 12.877 16.211 19.115 22.637a556.125 556.125 0 012.458 12.114zM91.87 179.932c-2.87 8.767-6.833 17.208-10.84 25.541-2.09 4.356-10.57 14.433-15.119 16.351.53-11.367.574-24.641-.747-36.116-1.267-11.053 2.707-19.429-1.625-29.68-.552-1.311-1.126-2.622-1.7-3.934.4.131.79.271 1.17.434 7.126 3.056 10.418 10.598 11.025 17.923.509 6.046-.585 12.104-1.397 18.118-.38 2.774-.683 5.613-.087 8.332.01.033.022.055.022.087.747 3.24 5.48 3.056 6.086-.227l1.895-10.067c.563-3.013 1.18-6.166 3.65-8.268.975-.834 2.23-1.354 3.509-1.311 2.036.076 3.314 1.268 4.159 2.817z" fill="#5275A0"/><path d="M90.43 274.487c-4.938-25.8-7.538-29.777-5.36-36.246 2.772-8.246 1.212-16.525 3.822-24.825 2.61-8.29 4.386-17.208 2.285-25.649-.66-2.666-2.014-5.57-5.22-5.689-1.288-.044-2.534.477-3.508 1.311-2.47 2.102-3.087 5.255-3.65 8.268l-1.885 10.067c-.617 3.272-5.339 3.467-6.086.216-.01-.032-.01-.054-.022-.086-.606-2.72-.292-5.559.076-8.333.812-6.025 1.906-12.072 1.408-18.129-.607-7.325-3.899-14.867-11.036-17.912a12.585 12.585 0 00-8.046-.639c-7.44 1.907-9.368 9.189-8.274 15.398.769 4.377 2.815 8.398 4.667 12.429 4.527 9.85 1.202 18.887 1.83 29.712 1.733 29.897 39 60.107 39 60.107z" fill="#7EE8D4"/><path d="M57.226 164.664c3.67 18.357 7.386 36.843 14.512 54.159 2.09 5.071 3.108 11.757 15.205 25.562" stroke="#00AD9F" stroke-miterlimit="10" stroke-linecap="round" stroke-linejoin="round"/><path d="M200.452 169.367c-3.802-4.345-7.311-8.766-11.004-13.025-2.393-2.763-4.862-5.461-7.548-8.018a76.301 76.301 0 00-4.159-3.717c-8.577-7.087-18.151-12.971-28.385-17.349-6.173-2.644-12.693-4.822-17.935-9.037-5.241-4.204-9.01-11.118-7.266-17.608 1.267-4.681 5.241-8.322 9.801-9.991 4.548-1.658 9.595-1.528 14.328-.51 13.212 2.85 24.248 12.354 31.753 23.591.13.195.271.4.401.606 5.501 8.398 9.346 17.739 12.693 27.253a482.414 482.414 0 013.097 9.2c1.516 4.583 6.173 14.065 4.224 18.605z" fill="#5193F4"/><path d="M140.01 101.154c14.414 2.753 24.616 12.299 35.305 22.355 10.689 10.056 18.444 23.2 22.072 37.428" stroke="#0B43A4" stroke-miterlimit="10" stroke-linecap="round" stroke-linejoin="round"/><path opacity=".2" d="M189.448 156.342c-.119 1.496-.075 2.991.206 4.508-3.606-.823-6.108-6.426-7.754-12.526-1.614-5.928-2.415-12.343-2.664-15.301a66.203 66.203 0 011.202-18.714c5.501 8.398 9.346 17.739 12.693 27.253a112.464 112.464 0 00-2.946 10.359c-.347 1.485-.618 2.948-.737 4.421z" fill="#5275A0"/><path d="M214.455 104.275c-1.224 5.407-4.484 10.078-7.365 14.824a115.093 115.093 0 00-4.256 7.661 116.741 116.741 0 00-9.595 26.245c-.704 2.98-1.094 5.905-.531 8.929-7.104-1.626-9.942-21.835-10.418-27.838-.856-10.814.985-21.9 5.436-31.804 1.939-4.345 4.452-8.614 8.318-11.4 3.855-2.784 9.314-3.76 13.397-1.332 2.458 1.463 4.039 3.89 4.808 6.653.758 2.58.791 5.451.206 8.062z" fill="#52D2BC"/><path d="M190.001 155.974c-4.419-11.107-1.733-34.61 5.35-49.38 2.133-4.453 5.176-8.625 9.433-11.107" stroke="#00AD9F" stroke-miterlimit="10" stroke-linecap="round" stroke-linejoin="round"/><path opacity=".2" d="M214.455 104.276c-1.224 5.407-4.484 10.077-7.365 14.824a114.643 114.643 0 00-4.256 7.661c-1.939-3.273-3.271-6.881-3.639-10.652-.595-6.296 1.809-13.036 6.921-16.742 2.393-1.723 5.198-2.709 8.133-3.153.758 2.579.79 5.45.206 8.062z" fill="#5275A0"/><path d="M255.446 151.314a22.924 22.924 0 01-1.841 5.982c-3.152 6.827-9.769 12.678-19.678 17.446 0 0-.552-10.793-.672-13.686-.487-12.375-13.905-19.212-22.396-28.239-4.321-4.605-7.602-10.413-8.209-16.709-.596-6.296 1.809-13.036 6.92-16.742 4.289-3.099 9.899-3.77 15.184-3.37 8.512.683 17.1 4.248 22.396 10.901.228.25.423.521.618.781 3.238 4.432 4.906 9.828 6.129 15.203 2.123 9.308 3.076 18.995 1.549 28.433z" fill="#00AD9F"/><path d="M213.231 105.998c9.292 4.811 18.595 10.619 23.999 19.57 7.548 12.494 5.902 28.748.087 42.13" stroke="#00AD9F" stroke-miterlimit="10" stroke-linecap="round" stroke-linejoin="round"/><path d="M410.856 231.122c5.924-9.753 2.891-22.301 4.96-33.516 1.581-8.626 6.379-16.623 13.245-22.084 4.31-3.424 10.364-5.873 15.227-3.305 1.05.553 2.306 1.344 3.324.715.607-.368.845-1.127.997-1.82 1.234-6.058-1.679-12.678.704-18.389 1.278-3.077 3.931-5.375 6.736-7.163a36.704 36.704 0 0118.162-5.699c1.7-.065 3.476 0 5.003.758 2.751 1.376 4.007 4.811 3.639 7.867-.368 3.056-2.058 5.797-3.92 8.246-6.217 8.138-15.325 15.16-16.527 25.324-.151 1.279-.151 2.644.433 3.793.574 1.116 1.636 1.907 2.231 3.001 1.917 3.522-1.787 7.521-5.393 9.244a31.22 31.22 0 01-10.527 2.914c-2.512.239-5.339.293-7.05 2.146-3.151 3.424.466 8.896-.195 13.502-.411 2.871-2.491 5.19-4.592 7.206a83.019 83.019 0 01-12.671 10.001c-3.682 2.363-7.57 4.443-10.83 7.347-3.26 2.904-5.891 6.838-6.108 11.205" fill="#52D2BC"/><path d="M418.653 221.629c.964-4.724 3.162-9.102 5.339-13.404 3.401-6.729 6.866-13.556 12-19.071 3.899-4.194 8.653-7.51 12.617-11.638a43.456 43.456 0 007.126-9.904c1.029-1.962 1.917-4.02 3.292-5.743 1.646-2.048 3.888-3.511 5.848-5.267a24.988 24.988 0 006.195-8.549" stroke="#00AD9F" stroke-miterlimit="10" stroke-linecap="round" stroke-linejoin="round"/><path d="M495.881 237.883c-1.332 5.137-3.314 10.219-6.714 14.293-2.35 2.807-5.274 5.028-8.469 6.838-1.646.942-3.379 1.766-5.123 2.503a61.469 61.469 0 01-21.41 4.746c-10.7.401-21.704-1.961-31.97 1.094-4.712 1.398-9.054 3.945-12.617 7.315a30.71 30.71 0 00-5.664 7.162l1.397-8.885c2.588-9.558 5.23-19.288 10.516-27.665 3.411-5.428 7.84-10.153 12.551-14.498 7.527-6.957 15.877-13.079 25.093-17.555 7.451-3.619 15.725-6.165 23.956-5.157 8.22.996 16.299 6.198 18.866 14.076 1.646 5.06.931 10.586-.412 15.733z" fill="#5193F4"/><path d="M412.307 266.187c7.862-11.638 19.634-20.588 32.955-25.031 8.296-2.774 17.079-3.825 25.483-6.252 8.404-2.428 16.797-6.545 21.725-13.784" stroke="#0B43A4" stroke-miterlimit="10" stroke-linecap="round" stroke-linejoin="round"/><path d="M417.484 351.542c.465-11.952 6.638-22.983 14.144-32.302 6.248-7.769 13.797-14.878 23.121-18.421 2.925-1.105 6.13-1.853 9.163-1.105 3.032.747 5.783 3.337 5.837 6.469.043 2.633-1.722 4.941-3.585 6.805-6.129 6.144-14.046 10.077-21.476 14.563-12.757 7.716-24.887 18.01-29.944 32.043" fill="#52D2BC"/><path d="M422.206 341.086c7.797-17.403 27.984-32.964 41.294-34.903" stroke="#00AD9F" stroke-miterlimit="10" stroke-linecap="round" stroke-linejoin="round"/><path d="M412.61 361.046c-.108-2.005 6.422-7.239 7.895-8.572 8.155-7.401 17.837-12.84 28.071-16.048 4.138-1.3 8.545-2.243 12.682-1.246 4.148.997 7.95 4.4 8.35 8.864.39 4.334-2.512 8.582-6.227 10.673-3.715 2.103-8.047 2.417-12.184 2.178-6.389-.368-12.671-1.961-19.082-1.918-6.422.055-15.433.705-19.505 6.069z" fill="#00AD9F"/><path d="M419.26 354.967c13.115-7.109 32.944-11.736 47.348-9.991" stroke="#00AD9F" stroke-miterlimit="10" stroke-linecap="round" stroke-linejoin="round"/><path opacity=".2" d="M255.446 151.314a22.924 22.924 0 01-1.841 5.982c-4.603-9.763-8.653-22.507-9.628-38.154-.26-4.237.921-8.593 3.173-12.245.228.25.423.521.618.781 3.238 4.432 4.906 9.828 6.129 15.203 2.123 9.308 3.076 18.995 1.549 28.433z" fill="#5275A0"/><path d="M300.813 150.762c9.79-3.479 19.97-6.253 28.872-11.627 2.697-1.626 5.285-3.511 7.202-6.004 1.906-2.492 3.087-5.678 2.664-8.798-.433-3.165-2.458-6.199-1.776-9.33.455-2.059 1.993-3.663 3.173-5.418 2.805-4.15 3.639-9.579 2.221-14.39-1.538-5.158-5.405-9.298-7.603-14.206a23.74 23.74 0 01-1.83-12.895c-8.22.108-15.715 4.605-23.794 6.1-6.184 1.149-12.606.52-18.736 1.93-11.165 2.567-20.306 12.406-22.038 23.74-5.177-.888-10.755.976-14.361 4.812-3.823 4.074-5.978 9.872-5.632 15.452 2.524 40.559 25.732 61.711 25.732 61.711s22.169-29.744 25.906-31.077z" fill="#7EE8D4"/><path d="M278.904 150.48c-1.018-10.002 2.48-19.895 6.487-29.116 3.909-8.984 8.415-17.793 14.458-25.508 6.043-7.716 13.721-14.326 22.786-18.053M287.622 83.947c-1.029 8.918-.304 19.667 2.014 28.336M291.304 109.086c10.18-6.534 25.84-10.5 37.916-9.806M266.406 110.755c12.26 5.169 12.758 23.2 13.093 28.326M282.835 127.616c9.379-6.729 22.927-8.756 32.901-6.242M308.426 79.309c-2.816 3.478-3.52 7.618-3.238 10.49M307.852 87.252c4.321-2.21 10.105-2.72 16.289-1.17" stroke="#00AD9F" stroke-miterlimit="10" stroke-linecap="round" stroke-linejoin="round"/><path d="M66.713 106.876c1.148-.065 9.01-5.884 12.032-7.846.855-.552 1.71-1.127 2.306-1.95.596-.824.878-1.95.444-2.872-.541-1.137-1.43-2.275-3.671-2.275-3.91.01-5.274 1.3-7.18 3.261-6.292 6.513-3.931 11.682-3.931 11.682zM101.942 130.357c3.422 1.539 7.072 3.067 10.798 2.59 1.44-.184 3.021-.845 3.498-2.21.411-1.171-.152-2.525-1.083-3.349-.932-.823-2.155-1.224-3.368-1.517-4.549-1.116-10.949-.498-15.455.78-.01 0 3.563 2.785 5.61 3.706zM124.469 79.797c-1.527-.965-3.217-2.254-3.206-4.064 0-1.81 1.884-3.186 3.693-3.197 1.809-.01 3.487.976 4.852 2.178 5.751 5.06 5.036 10.826 5.036 10.826s-8.675-4.67-10.375-5.743zM129.006 64.377c-1.343-.574-2.718-1.268-3.509-2.503-.379-.596-.595-1.355-.368-2.027.39-1.116 1.094-2.123 3.921-1.614 8.934 1.625 10.884 7.748 10.884 7.748s-8.556-.585-10.928-1.604zM155.182 77.922c3.585-.314 7.289-2.091 9.542-4.898.855-1.062 1.635-2.221 1.916-3.554.282-1.333-.021-2.85-1.05-3.739-1.256-1.083-3.249-.91-4.624 0-1.387.91-2.275 2.406-2.99 3.89-.953 1.994-2.794 8.3-2.794 8.3z" fill="#4A49CA"/><path d="M91.188 208.669l-26.035-22.961c-4.624-4.075-9.346-8.279-12.27-13.708-6.293-11.67-2.665-26.83 5.837-37.005 8.502-10.175 20.956-16.178 33.475-20.545 12.509-4.367 25.537-7.433 37.461-13.22 7.484-3.63 15-9.026 17.057-17.088 1.235-4.844.195-10.23-2.75-14.26-2.946-4.042-7.755-6.665-12.747-6.957M161.247 69.6c-2.372 7.282-11.61 11.714-15.822 18.031" stroke="#0B43A4" stroke-miterlimit="10" stroke-linecap="round" stroke-linejoin="round"/><path d="M128.086 77.976c1.819 1.918 3.996 3.511 5.588 5.624 3.357 4.475 3.628 11.746-1.332 16.254M81.355 118.763c7.656 5.906 17.717 9.839 27.378 10.207M63.832 129.512c-3.53-10.402.314-22.864 9.086-29.463" stroke="#0B43A4" stroke-miterlimit="10" stroke-linecap="round" stroke-linejoin="round"/><path d="M343.688 85.561c-.411-1.29-.39-2.871.553-3.836.758-.758 2.014-1.105 3-.671 7.613 3.348 6.79 15.235 6.79 15.235s-7.213-1.04-10.343-10.728zM343.504 107.829c-4.927 8.908 12.574 8.225 18.888 2.98 0 0-14.642-10.651-18.888-2.98zM365.641 86.244c-1.192-1.625-1.614-4.053-.314-5.602.963-1.149 2.642-1.506 4.115-1.225 1.473.282 3.682 1.647 4.624 2.818 5.762 7.173 3.054 14.184 3.054 14.184s-9.541-7.51-11.479-10.175zM435.147 108.295c-.422-1.387-.325-3.077.748-4.052.682-.618 1.646-.835 2.555-.77.91.065 1.787.401 2.621.781 1.787.812 3.173 2.243 4.029 4.009 2.166 4.464.693 9.98.693 9.98s-9.584-6.491-10.646-9.948zM413.282 124.636c-3.098-2.72-7.83-3.522-11.61-1.864-.964.423-1.874 1.019-2.48 1.864-1.386 1.918-.899 4.714.541 6.588 1.43 1.875 3.607 3.013 5.762 3.988 3.899 1.766 9.942 2.124 14.09 3.186-.011-.011-.022-8.246-6.303-13.762z" fill="#4A49CA"/><path d="M349.147 87.48c2.577 8.43 9.866 14.801 17.977 18.236 8.112 3.446 17.047 4.356 25.851 4.92 8.794.574 17.697.856 26.198 3.164 8.285 2.254 16.548 6.935 20.1 14.759 4.332 9.525.499 20.902-5.588 29.42-6.075 8.506-14.263 15.365-20.143 24.012-2.697 3.966-4.961 8.626-4.408 13.394.725 6.36 6.086 11.041 11.057 15.072M369.42 84.38c5.827 6.448 10.484 16.536 11.621 25.162" stroke="#0B43A4" stroke-miterlimit="10" stroke-linecap="round" stroke-linejoin="round"/><path d="M349.818 109.303c3.336.889 6.715 1.777 10.159 1.788 3.444.011 7.44-1.907 9.92-4.302M440.855 108.816c3.119 3.012 5.025 7.271 5.187 11.605.163 4.345-2.242 9.601-5.133 12.841M408.181 128.515c6.238 5.743 11.664 10.392 18.595 15.268 3.162 2.233 9.443 5.082 12.238 4.346" stroke="#0B43A4" stroke-miterlimit="10" stroke-linecap="round" stroke-linejoin="round"/><path opacity=".2" d="M480.697 259.014c-1.646.942-3.379 1.766-5.122 2.503a61.48 61.48 0 01-21.411 4.746c-10.7.401-21.703-1.961-31.97 1.094-4.711 1.398-9.054 3.945-12.617 7.315-.358.173-.715.368-1.072.574-.856-7.249 17.208-16.698 22.699-19.158 9.91-4.443 20.956-6.415 31.786-5.548 4.744.379 9.606 1.311 13.516 4.009 1.679 1.16 3.151 2.709 4.191 4.465z" fill="#5275A0"/><path d="M462.98 254.874c4.744.38 9.606 1.311 13.516 4.01 3.91 2.698 6.671 7.52 5.761 12.19-1.061 5.44-6.682 8.983-12.183 9.644-5.502.672-10.993-.845-16.418-1.961a116.814 116.814 0 00-36.584-1.669c-3.043.336-5.924.943-8.577 2.503-.856-7.249 17.219-16.698 22.71-19.158 9.91-4.453 20.956-6.426 31.775-5.559z" fill="#52D2BC"/><path d="M413.195 275.018c8.967-7.888 32.002-13.241 48.291-11.518 4.905.52 9.855 1.983 13.624 5.169" stroke="#00AD9F" stroke-miterlimit="10" stroke-linecap="round" stroke-linejoin="round"/><path d="M396.441 186.38l87.603-.185c10.278-.021 18.628 8.301 18.649 18.584.022 10.284-8.295 18.638-18.573 18.66l-59.922.119M131.389 250.735l-61.265.13c-5.805.011-10.494 4.724-10.483 10.533.01 5.808 4.721 10.5 10.526 10.489l17.859-.033" stroke="#0B43A4" stroke-miterlimit="10" stroke-linecap="round" stroke-linejoin="round" stroke-dasharray="4 4"/><path d="M33.605 298.197c-20.988.043-21.421 31.37 5.275 31.305 26.706-.054 377.022-.78 393.538-.813 16.516-.032 18.259-25.822-2.155-25.779-40.645.087-41.988-19.309-19.429-19.353" stroke="#C8DBFB" stroke-miterlimit="10" stroke-linecap="round" stroke-linejoin="round" stroke-dasharray="4 4"/><path d="M38.511 297.33a5.2 5.2 0 01-4.245 5.992 5.197 5.197 0 01-5.99-4.248 5.2 5.2 0 014.246-5.992c2.827-.477 5.513 1.42 5.99 4.248z" fill="#5193F4"/><path d="M420.906 283.698a5.2 5.2 0 01-4.246 5.992 5.197 5.197 0 01-5.989-4.247 5.2 5.2 0 014.246-5.993 5.207 5.207 0 015.989 4.248z" fill="#0B43A4"/><path opacity=".2" d="M426.548 374.266l-325.862.671c-4.343.011-7.884-3.51-7.884-7.856l-.444-215.994c-.01-4.346 3.509-7.889 7.852-7.889l325.862-.672c4.343-.011 7.884 3.511 7.884 7.856l.444 215.995a7.867 7.867 0 01-7.852 7.889z" fill="#5275A0"/><path d="M420.169 370.136l-325.862.672c-4.343.011-7.884-3.511-7.884-7.856l-.444-215.995c-.01-4.345 3.509-7.888 7.852-7.888l325.862-.672c4.343-.011 7.884 3.511 7.884 7.856l.444 215.995c.011 4.345-3.509 7.877-7.852 7.888z" fill="#fff"/><path d="M419.163 138.387l-324.465.672c-4.733.011-8.556 3.857-8.556 8.593l.01 7.455 341.61-.704-.011-7.456c-.011-4.735-3.855-8.571-8.588-8.56z" fill="#0056EC"/><path d="M95.087 370.809l49.027-.098-.444-215.723-57.594.119.423 207.163c.01 4.725 3.855 8.55 8.588 8.539z" fill="#C8DBFB"/><path d="M419.791 140.554c3.141 0 5.696 2.557 5.707 5.7l.444 215.994a5.663 5.663 0 01-1.668 4.042 5.621 5.621 0 01-4.028 1.68l-325.873.672c-3.141 0-5.697-2.558-5.708-5.7l-.444-215.995c0-1.527.585-2.958 1.668-4.041a5.623 5.623 0 014.029-1.68l325.851-.672h.022zm0-2.167h-.022l-325.862.672c-4.343.011-7.863 3.543-7.852 7.888l.444 215.995a7.871 7.871 0 007.874 7.856h.021l325.863-.672c4.342-.011 7.862-3.543 7.851-7.888l-.444-215.995a7.87 7.87 0 00-7.873-7.856z" fill="#0056EC"/><path d="M135.84 354.317l-37.785.075a3.014 3.014 0 01-3.022-3.012v-.379a3.015 3.015 0 013.01-3.024l37.786-.075a3.014 3.014 0 013.022 3.012v.379a3.008 3.008 0 01-3.011 3.024zM131.302 207.965l-32.165.065c-3.054.011-5.534-2.47-5.545-5.526l-.065-32.183c-.01-3.056 2.47-5.537 5.524-5.548l32.165-.065c3.054-.011 5.534 2.47 5.545 5.526l.064 32.183c0 3.067-2.469 5.548-5.523 5.548z" fill="#fff"/><path d="M269.005 304.373l-112.068.228a3.951 3.951 0 01-3.953-3.934v-.487a3.95 3.95 0 013.931-3.955l112.068-.228a3.95 3.95 0 013.953 3.934v.487a3.936 3.936 0 01-3.931 3.955zM262.529 176.616l-88.557.185a3.951 3.951 0 01-3.953-3.934v-.487a3.952 3.952 0 013.932-3.956l88.556-.184a3.951 3.951 0 013.953 3.934v.487c0 2.189-1.755 3.955-3.931 3.955zM402.527 266.241l-118.078.25a3.95 3.95 0 01-3.953-3.934v-.488a3.95 3.95 0 013.931-3.955l118.079-.238a3.95 3.95 0 013.953 3.933v.488a3.949 3.949 0 01-3.932 3.944zM269.038 321.7l-112.069.228a3.951 3.951 0 01-3.953-3.934v-.487a3.952 3.952 0 013.932-3.956l112.068-.227a3.95 3.95 0 013.953 3.933v.488c.011 2.178-1.755 3.944-3.931 3.955zM269.07 339.016l-112.068.228a3.951 3.951 0 01-3.953-3.934v-.488a3.95 3.95 0 013.931-3.955l112.068-.227a3.95 3.95 0 013.953 3.933v.488a3.936 3.936 0 01-3.931 3.955zM400.123 350.307l-112.945.239a6.503 6.503 0 01-6.52-6.502l-.097-48.535a6.502 6.502 0 016.498-6.523l112.945-.238a6.502 6.502 0 016.52 6.501l.097 48.535a6.502 6.502 0 01-6.498 6.523zM104.877 146.904a2.757 2.757 0 01-2.751 2.763 2.764 2.764 0 01-2.761-2.752 2.757 2.757 0 012.751-2.763 2.764 2.764 0 012.761 2.752zM113.812 149.657a2.764 2.764 0 000-5.527 2.763 2.763 0 000 5.527zM128.259 146.861a2.758 2.758 0 01-2.751 2.763 2.758 2.758 0 01-.011-5.516c1.517-.01 2.751 1.225 2.762 2.753zM165.685 173.457a7.982 7.982 0 10-15.883-1.592 7.982 7.982 0 1015.883 1.592z" fill="#C8DBFB"/><path d="M133.544 214.716l-35.36.076a1.496 1.496 0 01-1.494-1.485v-.184c0-.823.66-1.484 1.484-1.495l35.359-.076c.824 0 1.484.661 1.495 1.484v.185c0 .823-.661 1.495-1.484 1.495zM133.555 221.478l-35.36.075a1.495 1.495 0 01-1.494-1.484v-.184c0-.824.66-1.485 1.483-1.496l35.36-.076c.823 0 1.484.661 1.495 1.485v.184c0 .824-.661 1.485-1.484 1.496z" fill="#fff"/><path d="M174.037 235.76l-9.996.097.076 41.914-8.631.021c-3.044.011-5.513-2.459-5.524-5.504l-.162-77.51a5.56 5.56 0 015.556-5.581l18.573-.043.108 46.606z" fill="#C8DBFB"/><path d="M238.898 189.024v1.083c2.989 0 5.426 2.428 5.426 5.418l.151 75.571a5.44 5.44 0 01-5.415 5.45l-82.6.174c-2.989 0-5.426-2.428-5.426-5.418l-.151-75.571a5.44 5.44 0 015.415-5.45l82.589-.174.011-1.083zm0 0h-.011l-82.589.173c-3.596.011-6.509 2.926-6.498 6.523l.151 75.571c.011 3.597 2.925 6.501 6.509 6.501h.011l82.589-.173c3.596-.011 6.509-2.926 6.498-6.523l-.151-75.571c0-3.597-2.914-6.512-6.509-6.501zM376.806 251.212L266.644 226.3c-3.509-.791-5.707-4.281-4.917-7.791l12.39-54.863a6.511 6.511 0 017.787-4.92l110.162 24.912c3.509.791 5.707 4.28 4.917 7.791l-12.39 54.863c-.791 3.511-4.278 5.722-7.787 4.92z" fill="#C8DBFB"/><path d="M163.608 400.424l-15.411.032-3.78-19.645 22.884-.044-3.693 19.657z" fill="#0056EC"/><path d="M148.685 380.8c0 1.603-.304 4.291.769 4.334 1.072.043.628-2.557 1.841-2.481.779.043-.358 8.538 2.577 8.744 2.015.141 1.646-4.161 1.852-6.859.141-1.82 2.469-1.463 2.491-.26.022 1.355-.065 2.254 0 3.793.108 2.568 4.05 1.885 3.91-1.539-.141-3.424-.011-5.743-.011-5.743l-13.429.011z" fill="#C8DBFB"/><path d="M145.002 392.665c-.314 0-.617-.032-.909-.097-1.138-.249-1.928-.845-2.372-1.777-1.571-3.338 2.567-9.579 2.729-9.861l.217 1.127c-.033.065-3.639 5.429-2.221 8.43.336.716.932 1.16 1.831 1.355.249.054.509.076.769.076 5.555-.011 15.042-10.359 15.151-10.479.39-.466 1.115-.021.855.369-.444.498-10.082 10.847-16.05 10.857z" fill="#0C2340"/><path opacity=".2" d="M306.975 123.964c-21.909-.834-52.071 15.377-41.371 55.015-.227 3.348 1.777 5.743 3.91 5.093 2.134-.65.249-7.011.249-7.011 3.65-29.474 10.473-34.567 22.05-34.459l27.172-.054c6.715.986 18.92 5.689 20.75 29.279l6.769 1.246c.531-17.045-3.585-47.733-39.529-49.109z" fill="#5275A0"/><path d="M306.975 120.508c-21.909-.835-52.071 15.376-41.371 55.014l4.159-1.918c3.65-29.474 10.473-34.567 22.05-34.458l27.172-.055c6.715.986 19.245 6.957 21.075 30.547l6.433-.011c.542-17.056-3.574-47.743-39.518-49.119z" fill="#EF832B"/><path d="M302.491 121.158l-3.249 7.151s.39 4.031 4.343 3.945c3.953-.087 4.484-1.907 4.484-1.907l.519-8.214-6.097-.975z" fill="#FFB9A3"/><path d="M319.223 115.187c-3.703 6.556-5.35 8.604-10.201 9.59-6.282 1.279-13.321-2.958-10.051-13.404 2.665-8.517 6.715-7.206 10.668-6.881 3.953.314 13.592 3.608 9.584 10.695z" fill="#FFB9A3"/><path d="M304.473 110.007c-.985-.509-2.253-.075-3.021.726-.791.835-1.17 2.07-.834 3.165-1.517.021-2.849 1.506-2.708 3.023-1.04-2.417-.476-4.941-.682-7.423-.206-2.481.065-5.169 1.668-7.065.66-.78 1.505-1.376 2.404-1.853 3.411-1.82 7.711-1.875 11.176-.162.715.357 2.513 1.484 5.025.877 4.787-1.159 7.581 2.081 4.711 5.115.921.336 1.939.748 2.351 1.636.108.228.162.509.021.715-.097.141-.27.217-.444.271a5.231 5.231 0 01-2.523.195c.325.271 2.101.379 2.632 1.42 1.429 2.752-4.224 1.365-5.091 1.083.986.185 3.564 2.243 2.74 3.663-.162.282-3.649 2.308-7.31-1.951-.855-.986-1.917-1.907-3.173-2.243-.985-.26-2.025.098-2.989.466-.704.26-2.491 1.355-3 .705-.531-.694.195-1.788-.953-2.363z" fill="#0C2340"/><path d="M340.764 169.627c-.974 3.349-1.949 3.674-.78 4.205 1.181.531 2.134-1.344 2.134-1.344l5.437 1.084s-1.224-3.533-2.08-3.956c-.855-.422-4.711.011-4.711.011zM269.763 173.604c.715 1.766.91 1.777 1.895 3.901 1.896 4.053-2.534 10.457-5.285 3.468-.758-1.918-.769-5.44-.769-5.44l4.159-1.929z" fill="#FFB9A3"/><path d="M312.217 100.992c3.714.206 8.285-2.417 11.198.942.271.315.812-.097.574-.444-2.783-3.998-7.949-1.018-11.761-1.127-.412 0-.401.607-.011.629zM313.711 98.944c-2.534.444-4.981-.759-7.527-.358-2.068.325-3.909 1.387-5.469 2.742-.4.346.119 1.029.574.737 2.188-1.442 4.289-2.688 7.018-2.482 1.982.141 3.661.737 5.632.141.498-.152.281-.867-.228-.78zM299.264 102.411c-1.787 1.116-2.816 2.601-3.032 4.736-.152 1.538-.195 5.06 1.353 5.927.369.206.758-.282.455-.596-.996-1.008-1.083-3.728-1.007-5.006.108-1.962.931-3.457 2.491-4.627.249-.184.022-.607-.26-.434zM326.74 108.512c-.921-1.593-3.271-3.002-5.08-1.994-.281.163-.151.596.163.596.79.011 1.516-.087 2.285.152.877.271 1.614.78 2.133 1.528.217.303.683.043.499-.282z" fill="#0C2340"/><path d="M206.224 273.816c11.49 4.226 21.465 17.402 19.169 26.992-2.588 10.825-10.05 15.496-10.05 15.496l-2.35-4.346s5.967-9.329 5.447-13.74c-.834-7.054-9.736-11.778-9.736-11.778l-2.48-12.624z" fill="#0B43A4"/><path d="M177.947 395.959s-7.05 2.85-8.816 4.465l13.971-.033-.011-4.443-5.144.011zM208.823 395.688s2.004 2.319 2.372 4.649l-9.53.022c.162-1.604.844-3.153 1.776-4.66l5.382-.011z" fill="#0C2340"/><path d="M209.408 395.894l-6.509.011c.13-7.672-1.451-33.819-2.978-53.367-.899-11.465-1.787-20.675-2.307-22.539l3.487-.77 13.159-2.925c2.252 10.294-2.946 57.561-4.852 79.59z" fill="#047F76"/><path d="M185.485 319.587c-5.08 7.997-6.39 65.818-8.513 76.535l6.173.347s7.094-36.453 22.191-77.435l-19.851.553z" fill="#009790"/><path opacity=".2" d="M207.935 319.034a529.43 529.43 0 00-8.014 23.504c-.899-11.465-1.787-20.675-2.307-22.539l3.487-.77 6.834-.195z" fill="#5275A0"/><path d="M185.485 319.587c-5.08 7.997-6.39 65.818-8.513 76.535l6.173.347s7.094-36.453 22.191-77.435l-19.851.553z" fill="#009790"/><path d="M189.362 255.037s-3.953 15.062 5.924 15.051l-.585 3.847 7.494.823-1.624-5.363s1.483-9.471 1.581-11.183c.184-3.197-8.762-8.821-12.79-3.175z" fill="#FFB9A3"/><path d="M164.95 238.152l-2.913.006.024 12.299 2.913-.006-.024-12.299z" fill="#0C2340"/><path d="M171.839 238.133l-16.7.032a2.118 2.118 0 01-2.123-2.113v-.433c0-1.171.943-2.124 2.112-2.124l16.7-.033c1.17 0 2.123.943 2.123 2.113v.434a2.112 2.112 0 01-2.112 2.124z" fill="#0056EC"/><path d="M161.258 253.661c-.076-2.785-2.383-2.059-1.115-6.61.779-2.818 6.595.455 5.869 2.405-.725 1.951-1.559 5.039-1.559 5.039l-3.195-.834z" fill="#FFB9A3"/><path d="M195.351 273.057c-14.762.975-15.736 5.96-22.343 5.18-9.779-1.149-8.068-19.321-6.855-25.833l-5.837.011s-10.527 41.382 22.721 33.732c-1.278 7.249 6.996 19.093-1.029 33.462 12.617 3.435 24.4 4.269 34.483-.065-1.766-2.384 3.617-26.429-6.921-43.734-2.057-3.392-13.136-2.829-14.219-2.753z" fill="#0056EC"/><path d="M195.351 273.057c-14.762.975-15.736 5.96-22.343 5.18-9.779-1.149-8.068-19.321-6.855-25.833l-5.837.011s-10.527 41.382 22.721 33.732c-1.278 7.249 6.996 19.093-1.029 33.462 12.617 3.435 24.4 4.269 34.483-.065-1.766-2.384 3.617-26.429-6.921-43.734-2.057-3.392-13.136-2.829-14.219-2.753z" fill="#0056EC"/><path d="M193.315 257.93c.964.249 2.079.433 2.599 1.246.336.531.314 1.192.281 1.81.174-.65.899-1.116 1.582-1.03.693.076 1.278.694 1.288 1.366.011.314-.097.617-.216.91-.293.737-.661 1.43-1.094 2.091 1.202.445 2.22 3.977 2.816 5.072 2.025-.51 6.541-2.254 6.931-9.439.184-3.348-.834-7.357-4.462-9.579-2.567-1.571-6.812-1.593-9.747-.845-2.383.607-6.173 2.991-4.408 5.765.888 1.398 2.838 2.221 4.43 2.633z" fill="#EF832B"/><path d="M205.964 253.357c1.375-.455 3.119-.216 3.942.932.639.9.585 2.07.791 3.143.097.52.281 1.04.682 1.397.476.423 1.169.531 1.819.564 1.592.087 3.195-.119 4.765.152 1.571.271 3.174 1.148 3.618 2.611.249.813.108 1.701.411 2.492.444 1.192 1.711 1.875 2.816 2.569 2.35 1.473 4.354 3.467 5.794 5.775.921 1.463 1.624 3.088 1.733 4.79.108 1.701 1.343 3.955 1.007 5.624-.357 1.809-2.134 4.258-5.642 5.385-6.065 1.951-7.993 2.796-13.809-.661-.704-.412-2.068-1.831-2.707-2.341-.498-.4-.812-.975-.986-1.571-.487-1.668.076-3.467.943-4.984.866-1.517 2.046-2.861 2.934-4.367.531-.91.964-1.918.921-2.958-.022-.391-.119-.791-.401-1.073-.249-.239-.595-.358-.942-.423-1.278-.249-2.686.011-3.834-.563-1.126-.553-1.743-1.918-1.397-3.089.228-.78.823-1.441.986-2.232.238-1.148-.477-2.319-1.473-2.991-.996-.671-2.22-.931-3.422-1.126-.596-.098-1.213-.196-1.69-.542-.595-.423-.866-1.171-.855-1.875.043-2.254 1.873-3.933 3.996-4.638z" fill="#EF832B"/><path d="M204.87 259.414c7.3 1.583-1.917 8.507 1.95 11.823 1.104.942 2.382.65 3.671.823 4.96.683 2.242 4.053 1.906 6.697-.054.401.606.477.693.097.422-1.82 2.09-4.052 1.235-5.992-.758-1.712-2.643-1.506-4.191-1.56-1.939-.055-4.073 0-3.347-3.847.163-.856.845-1.723 1.181-2.536.379-.932.639-1.853.433-2.871-.358-1.723-1.787-2.731-3.433-3.002-.239-.054-.347.314-.098.368zM189.827 250.464c5.632-2.861 11.242-2.286 15.996 1.907.325.282.758-.152.477-.477-4.17-4.702-11.588-5.526-16.624-1.701-.163.13-.033.369.151.271z" fill="#EF832B"/><path d="M378.983 268.138l-2.437 4.919 5.957 2.438.639-5.656-4.159-1.701z" fill="#FFB9A3"/><path d="M382.579 252.154c-13.527 5.895-7.982 20.177.249 18.498 4.007-.813 6.032-13.73 6.032-13.73l-6.281-4.768z" fill="#FFB9A3"/><path d="M387.073 250.128c-.444-.823-.866-1.712-1.603-2.297-.736-.585-1.895-.78-2.577-.141-.91.845-.379 2.427.541 3.262-.79.097-1.733-.456-2.317.097-.444.412-.293 1.149-.033 1.701a7.49 7.49 0 002.773 3.175c-.683.39-1.484 1.149-1.073 1.821.12.184.304.314.423.498.26.434.011.997-.26 1.431a25.778 25.778 0 01-1.376 2.048c.466-.64 1.603-.38 1.939.336.336.715.043 1.592-.487 2.178-.293.325-.661.596-1.094.693-.368.087-2.014 5.158-.737 6.155 1.582 1.224 6.953.162 7.733-1.225.78.846 1.917 1.485 3.043 1.257 1.127-.227 1.982-1.614 1.376-2.589 1.213.444 2.696.054 3.53-.943.834-.997.953-2.525.293-3.641.66-.195.801-1.094.628-1.766-.347-1.355-1.451-2.503-2.805-2.883.682.011 1.224-.682 1.256-1.365.033-.683-.325-1.333-.758-1.864-1.267-1.571-2.772-1.983-4.646-2.221-1.884-.228-2.924-2.157-3.769-3.717z" fill="#4A49CA"/><path d="M374.402 395.027s-7.917 3.804-8.978 4.985c0 0 15.573.704 16.797-.032 1.224-.737-2.491-4.963-2.491-4.963l-5.328.01zM403.849 390.725s-6.953 5.364-7.755 6.74c0 0 16.419-2.438 16.419-3.51 0-1.073-3.466-4.346-3.466-4.346l-5.198 1.116z" fill="#0C2340"/><path d="M382.048 321.592c-.292 1.614-11.133 44.417 19.884 70.087l8.978-2.059s-10.451-9.806-15.379-27.469c-4.657-16.698-.964-18.335 1.831-27.524 3.097-10.175.79-17.565.79-17.565l-16.104 4.53z" fill="#D8742A"/><path d="M367.233 321.462c-4.917 11.757-13.354 51.818 5.036 74.367l9.184-.021s-7.235-7.932-8.047-26.343c-.812-18.41 3.866-26.494 7.169-32.562 3.303-6.079 6.357-16.395 6.357-16.395l-19.699.954z" fill="#EF832B"/><path d="M360.756 248.589c-2.436 8.604-3.238 24.511 8.978 30.916l8.177-1.994s-14.75-7.737-11.588-27.285l-5.567-1.637z" fill="#0B43A4"/><path d="M338.219 244.19l6.347-.78s-.769 26.678 30.031 28.932c23.512 1.712 25.353 45.858 25.353 45.858-7.581 5.104-20.295 6.653-36.594 5.483 0 0 1.039-31.49-1.549-40.115 0-.011-25.591-8.062-23.588-39.378z" fill="#0056EC"/><path d="M330.454 239.346c-1.072 1.246 3.412 2.828 7.765 4.844l5.578-.683s.065-1.116 0-2.275c-.065-1.16-.65-1.821-1.311-.824-.66.997-3.476 1.333-4.808.423-1.343-.921-6.152-2.731-7.224-1.485zM360.756 248.589c-2.046-2.004-1.494-1.885-1.494-1.885l6.227 1.409s1.365-3.045 2.534-3.121c1.159-.087-.877 2.091-.411 2.904.466.813-1.278 2.34-1.278 2.34l-5.578-1.647z" fill="#FFB9A3"/><path d="M390.571 253.065c1.278.325 2.578.455 3.639 1.332 1.051.867 1.527 2.352.769 3.555-.357.563.487 1.007.867.509.963-1.268.703-3.002-.271-4.204-1.127-1.377-3.217-1.951-4.928-1.767-.303.033-.411.488-.076.575zM396.203 264.627c.845.498 1.549 1.3 1.191 2.351-.336.964-1.31 1.539-2.101 2.091-.379.271-.054.846.368.629 1.17-.618 2.405-1.485 2.589-2.915.162-1.246-.672-2.189-1.711-2.752-.379-.195-.704.368-.336.596zM381.983 271.085c2.87 1.788 6.931 1.495 9.303-1.019.292-.314-.108-.899-.477-.617-2.599 1.928-5.544 2.546-8.588 1.235-.27-.119-.498.238-.238.401z" fill="#4A49CA"/><path d="M396.582 254.95c1.646 1.571 0 3.717-1.061 5.06-.239.293.13.694.422.423.942-.878 1.884-1.853 2.014-3.197.098-1.018-.325-1.983-1.223-2.481-.12-.065-.26.098-.152.195z" fill="#4A49CA"/><path d="M213.382 56.998l-2.534-6.21 24.508-9.319-21.974 15.529z" fill="#0B43A4"/><path d="M214.617 53.162l20.739-11.693-14.436 14.672-6.303-2.98zM205.238 48.253l30.118-6.784-24.508 9.32-5.61-2.536z" fill="#5193F4"/><path d="M214.617 53.162l-1.235 3.836 3.748-2.644-2.513-1.192z" fill="#0056EC"/><path d="M210.502 56.163c-6.401-1.083-15.086 5.396-11.35 12.136 1.267 2.298 7.83 1.3 7.343-1.235-.239-1.213-1.722-1.734-2.946-1.593-7.148.824-7.44 6.816-7.115 8.344 1.635 7.889 13.721 5.223 17.782 4.107" stroke="#C8DBFB" stroke-miterlimit="10" stroke-linecap="round" stroke-linejoin="round" stroke-dasharray="4 4"/></g><defs><clipPath id="clip0"><path fill="#fff" d="M0 0h514v439H0z"/></clipPath></defs></svg>

<svg width="770" height="657" viewBox="0 0 770 657" fill="none" xmlns="http://www.w3.org/2000/svg">
<g clip-path="url(#clip0)">
<path d="M161.783 83.5345C187.124 85.2373 197.735 67.9499 209.627 45.7326C242.22 -15.0812 314.822 -9.22686 339.174 28.2182C356.42 54.7493 393.621 49.2841 423.7 38.9052C453.309 28.6885 503.765 18.8772 543.968 31.0886C579.076 41.7594 593.467 80.2262 625.476 77.8585C695.288 72.7015 730.477 141.575 717.823 171.625C709.565 191.232 705.476 213.173 712.177 233.347C719.558 255.565 736.447 273.16 750.092 292.264C763.736 311.367 774.72 335.255 767.938 357.667C762.13 376.852 744.819 390.117 734.079 407.064C700.706 459.721 733.722 540.433 689.252 584.332C657.421 615.745 605.537 608.495 561.003 614.496C523.866 619.491 488.92 635.091 451.946 641.189C377.073 653.563 301.47 626.318 225.575 625.54C198.838 625.264 171.598 628.248 145.705 621.664C111.148 612.874 81.7503 586.294 69.7609 553.033C53.2126 507.139 68.8848 454.012 50.2111 408.929C34.9932 372.197 -2.24056 342.309 0.111894 302.675C1.57204 277.993 18.4286 257.365 30.0287 235.472C47.2584 202.957 24.4314 74.3556 161.783 83.5345ZM382.719 23.9532C376.051 23.9532 370.665 28.0885 370.665 33.1806C370.665 38.2728 376.083 41.9703 382.719 42.4081C404.378 43.8352 404.378 35.0942 404.378 29.9859C404.378 21.8449 389.371 23.9532 382.719 23.9532ZM602.666 63.3281C608.458 68.1121 615.839 70.9663 623.367 71.3555C625.379 71.4528 627.569 71.3231 629.11 70.0581C631.025 68.4851 631.236 65.2579 629.532 63.4578C628.462 62.3226 626.904 61.8199 625.444 61.2199C622.962 60.2144 620.544 58.7711 619.133 56.5169C618.727 55.8682 618.37 55.106 617.705 54.733C613.536 52.3816 595.04 57.0359 602.666 63.3281ZM639.559 71.4852C641.473 72.1501 643.55 71.5339 645.48 70.9176C646.713 70.5122 648.222 69.6365 647.898 68.404C647.735 67.804 647.184 67.4148 646.632 67.1228C644.101 65.7768 640.824 64.7714 638.293 66.5066C635.746 68.2256 637.66 70.8365 639.559 71.4852ZM727.638 245.445C727.962 248.316 729.747 250.797 731.451 253.132C734.76 257.64 738.119 262.214 742.483 265.733C744.332 267.225 746.474 268.554 748.859 268.635C751.033 268.717 753.109 267.727 754.862 266.462C759.145 263.397 762.032 258.484 762.633 253.278C763.444 246.142 760.118 239.185 756.257 233.104C753.856 229.342 751.065 225.579 747.074 223.568C740.357 220.179 735.928 223.131 734.046 229.082C732.343 234.564 726.94 239.348 727.638 245.445ZM13.1721 411.67C9.63529 414.783 12.8314 423.897 13.8697 429.914C14.178 431.714 14.5998 433.579 15.7355 435.022C17.2929 436.984 19.8888 437.795 22.3061 438.509C26.6054 439.757 31.8295 440.812 35.123 437.795C37.5565 435.557 37.9135 431.892 37.8972 428.6C37.8972 425.584 37.735 422.584 37.4105 419.583C37.2645 418.14 37.0536 416.664 36.2749 415.432C35.2852 413.859 33.533 412.951 31.8295 412.221C25.6807 409.626 16.7089 408.572 13.1721 411.67ZM229.306 639.956C227.213 640.378 224.715 641.286 224.407 643.378C224.163 645.114 225.607 646.589 227.019 647.627C238.554 656.238 254.096 656.79 268.535 656.984C270.223 657.001 271.975 657.017 273.516 656.368C276.599 655.071 278.091 651 276.647 648C276.128 646.897 275.301 645.973 274.425 645.13C262.841 633.826 243.762 637.07 229.306 639.956ZM517.539 634.135C504.511 643.654 517.685 652.168 534.136 645.859C542.994 642.454 551.496 639.097 560.581 636.827C563.517 636.097 581.25 632.253 581.25 628.28C581.25 617.723 561.279 620.22 548.705 621.972C538.565 623.383 528.279 626.286 517.539 634.135Z" fill="#ECF3FF"/>
<path d="M272.739 606.614C307.37 606.614 335.445 603.993 335.445 600.759C335.445 597.526 307.37 594.905 272.739 594.905C238.108 594.905 210.034 597.526 210.034 600.759C210.034 603.993 238.108 606.614 272.739 606.614Z" fill="#C8DBFB"/>
<path d="M594.863 606.614C629.494 606.614 657.568 603.993 657.568 600.759C657.568 597.526 629.494 594.905 594.863 594.905C560.232 594.905 532.158 597.526 532.158 600.759C532.158 603.993 560.232 606.614 594.863 606.614Z" fill="#C8DBFB"/>
<path d="M727.348 188.49C727.169 187.404 726.975 186.334 726.764 185.296" stroke="#C8DBFB" stroke-linecap="round" stroke-linejoin="round"/>
<path d="M725.222 179.02C714.044 140.942 678.368 144.623 646.131 144.688C611.428 144.753 74.2242 145.872 74.2242 145.872C20.2312 145.986 25.4715 223.892 67.7346 223.795C92.0379 223.746 101.286 269.365 59.2658 269.446C34.0539 269.494 33.2427 301.442 50.1966 307.848" stroke="#C8DBFB" stroke-linecap="round" stroke-linejoin="round" stroke-dasharray="3.99 3.99"/>
<path d="M53.3115 308.675C54.3336 308.853 55.4206 308.95 56.5563 308.934" stroke="#C8DBFB" stroke-linecap="round" stroke-linejoin="round"/>
<path d="M63.1758 307.458C63.8896 311.691 61.0505 315.697 56.816 316.426C52.5816 317.14 48.5743 314.302 47.8442 310.069C47.1304 305.837 49.9696 301.831 54.204 301.101C58.4384 300.388 62.4619 303.242 63.1758 307.458Z" fill="#5193F4"/>
<path d="M734.989 191.993C734.226 196.21 730.17 199.015 725.952 198.237C721.734 197.475 718.927 193.42 719.706 189.204C720.468 184.987 724.524 182.182 728.743 182.96C732.961 183.722 735.751 187.761 734.989 191.993Z" fill="#5193F4"/>
<path d="M142.38 250.731C141.261 257.04 139.622 263.202 137.627 269.284C133.328 282.403 127.39 295.036 121.387 307.507C118.256 314.026 105.552 329.108 98.7383 331.979C99.5333 314.967 99.5982 295.101 97.6189 277.927C95.7207 261.386 101.675 248.85 95.1853 233.509C94.3579 231.547 93.498 229.584 92.6382 227.622C89.4096 220.324 86.2135 212.994 85.2076 205.129C83.9097 195.156 87.0085 183.787 95.6396 178.598C101.853 174.868 109.949 175.063 116.585 177.998C123.22 180.933 128.542 186.301 132.581 192.318C143.889 209.118 145.933 230.817 142.38 250.731Z" fill="#5193F4"/>
<path d="M112.204 195.642C124.908 213.578 126.011 234.466 127.114 256.407C128.217 278.349 122.945 300.582 112.091 319.686" stroke="#0B43A4" stroke-miterlimit="10" stroke-linecap="round" stroke-linejoin="round"/>
<path d="M111.669 526.437C102.762 518.572 93.758 510.593 87.1711 500.7C81.4441 492.089 77.7451 482.31 72.7481 473.245C69.5196 467.391 65.6908 461.731 63.825 455.309C61.9593 448.887 62.3973 441.265 66.9724 436.384C71.7422 431.275 79.9353 430.497 86.4086 433.124C92.8819 435.751 97.8302 441.2 101.594 447.071C106.607 454.871 109.966 463.742 111.361 472.904C112.626 481.208 112.302 489.705 113.6 498.008C114.8 505.744 117.412 513.171 120.69 520.258C123.659 526.68 131.203 538.146 133.117 544.73C127.779 547.373 115.466 529.794 111.669 526.437Z" fill="#00AD9F"/>
<path d="M80.5356 444.865C89.0045 448.563 92.3628 458.666 94.1312 467.731C96.143 478.045 95.6887 489.219 100.426 498.609C109.349 516.301 120.949 536.427 129.58 542.443" stroke="#00AD9F" stroke-miterlimit="10" stroke-linecap="round" stroke-linejoin="round"/>
<path d="M67.8482 502.241C60.4663 499.322 50.586 498.122 45.8487 504.495C41.89 509.831 43.9342 517.404 46.6761 523.453C48.9961 528.561 51.9326 533.767 56.7998 536.54C60.1256 538.437 64.0356 539.005 67.8482 539.459C78.4748 540.724 89.1663 541.34 99.8741 541.308C112.269 541.275 127.292 546.335 137.562 554.071C124.388 529.615 92.7194 512.052 67.8482 502.241Z" fill="#0056EC"/>
<path d="M54.8853 518.134C64.2951 518.539 73.786 519.188 82.8065 521.864C92.0379 524.588 127.552 540.886 133.1 547.811" stroke="#0B43A4" stroke-miterlimit="10" stroke-linecap="round" stroke-linejoin="round"/>
<path d="M148.448 452.033C138.827 436.984 122.377 426.475 104.676 424.091C91.5999 422.34 78.1503 424.772 65.2361 422.064C51.673 419.226 39.4402 410.485 32.3666 398.566C25.293 386.646 23.4435 371.759 27.4184 358.477C30.4522 348.39 37.3798 338.822 47.4061 335.595C52.8736 333.844 58.8439 334.087 64.4249 335.417C69.5841 336.649 74.3702 338.806 78.783 341.612C88.8743 348.001 97.0349 357.829 103.167 368.272C108.732 377.759 122.458 392.533 131.803 402.15C137.286 407.761 141.261 411.604 141.261 411.604C147.653 419.583 144.652 442.546 148.448 452.033Z" fill="#52D2BC"/>
<path d="M44.4697 364.769C75.8953 378.943 110.16 397.528 132.452 423.832" stroke="#00AD9F" stroke-miterlimit="10" stroke-linecap="round" stroke-linejoin="round"/>
<path opacity="0.2" d="M135.469 420.296C135.469 420.296 88.6469 382.349 78.7666 341.628C88.8578 348.017 97.0184 357.845 103.151 368.288C108.716 377.775 122.441 392.549 131.786 402.166C132.889 407.258 134.106 413.242 135.469 420.296Z" fill="#5275A0"/>
<path opacity="0.2" d="M137.626 269.284C133.327 282.403 127.389 295.036 121.386 307.507C118.255 314.026 105.552 329.108 98.7379 331.979C99.5328 314.967 99.5977 295.101 97.6184 277.927C95.7202 261.386 101.674 248.85 95.1848 233.509C94.3574 231.547 93.4976 229.584 92.6377 227.622C93.238 227.817 93.822 228.027 94.3899 228.271C105.065 232.844 109.997 244.131 110.906 255.094C111.668 264.143 110.03 273.208 108.813 282.209C108.245 286.36 107.791 290.609 108.683 294.679C108.699 294.728 108.716 294.761 108.716 294.809C109.835 299.658 116.925 299.382 117.833 294.469L120.672 279.403C121.516 274.895 122.441 270.176 126.14 267.029C127.6 265.781 129.482 265.002 131.396 265.067C134.447 265.181 136.361 266.965 137.626 269.284Z" fill="#5275A0"/>
<path d="M135.469 410.793C128.071 372.181 124.177 366.229 127.438 356.547C131.592 344.206 129.255 331.816 133.165 319.394C137.075 306.988 139.736 293.642 136.588 281.009C135.599 277.019 133.571 272.673 128.769 272.495C126.838 272.43 124.972 273.208 123.512 274.457C119.813 277.603 118.888 282.322 118.045 286.83L115.222 301.896C114.297 306.794 107.223 307.086 106.104 302.22C106.088 302.172 106.088 302.139 106.071 302.091C105.163 298.02 105.633 293.771 106.185 289.62C107.402 280.603 109.04 271.554 108.294 262.489C107.386 251.526 102.453 240.239 91.762 235.682C87.9818 234.06 83.6987 233.704 79.7076 234.725C68.5619 237.579 65.674 248.477 67.3126 257.77C68.4645 264.321 71.5308 270.338 74.3051 276.371C81.0867 291.112 76.1059 304.637 77.0469 320.838C79.6427 365.58 135.469 410.793 135.469 410.793Z" fill="#7EE8D4"/>
<path d="M85.7266 246.434C91.2264 273.905 96.7912 301.572 107.467 327.487C110.598 335.076 112.123 345.082 130.245 365.742" stroke="#00AD9F" stroke-miterlimit="10" stroke-linecap="round" stroke-linejoin="round"/>
<path d="M300.287 253.472C294.593 246.969 289.336 240.352 283.804 233.979C280.218 229.844 276.519 225.806 272.496 221.979C270.5 220.065 268.44 218.216 266.266 216.416C253.416 205.81 239.075 197.004 223.743 190.453C214.495 186.496 204.729 183.236 196.876 176.928C189.024 170.636 183.378 160.289 185.99 150.575C187.888 143.569 193.843 138.12 200.673 135.623C207.487 133.142 215.047 133.336 222.137 134.861C241.93 139.126 258.462 153.348 269.705 170.165C269.9 170.457 270.111 170.765 270.306 171.073C278.547 183.642 284.307 197.621 289.32 211.859C290.926 216.432 292.451 221.038 293.96 225.627C296.231 232.487 303.207 246.677 300.287 253.472Z" fill="#5193F4"/>
<path d="M209.742 151.386C231.336 155.505 246.618 169.792 262.631 184.842C278.644 199.891 290.261 219.562 295.696 240.855" stroke="#0B43A4" stroke-miterlimit="10" stroke-linecap="round" stroke-linejoin="round"/>
<path opacity="0.2" d="M283.804 233.979C283.625 236.217 283.69 238.455 284.112 240.725C278.709 239.493 274.962 231.109 272.496 221.979C270.078 213.108 268.878 203.507 268.505 199.08C267.775 189.739 268.375 180.268 270.305 171.073C278.547 183.642 284.307 197.621 289.32 211.859C287.6 216.968 286.124 222.141 284.907 227.363C284.388 229.584 283.982 231.774 283.804 233.979Z" fill="#5275A0"/>
<path d="M321.265 156.056C319.431 164.149 314.548 171.138 310.233 178.241C307.961 181.971 305.836 185.815 303.857 189.707C297.513 202.161 292.678 215.378 289.482 228.984C288.428 233.444 287.844 237.823 288.687 242.347C278.044 239.915 273.794 209.67 273.08 200.686C271.798 184.501 274.556 167.911 281.224 153.089C284.128 146.586 287.892 140.196 293.684 136.028C299.46 131.861 307.637 130.401 313.753 134.034C317.436 136.223 319.805 139.856 320.956 143.991C322.092 147.851 322.141 152.148 321.265 156.056Z" fill="#52D2BC"/>
<path d="M284.631 233.428C278.012 216.805 282.035 181.631 292.646 159.527C295.842 152.862 300.401 146.618 306.777 142.904" stroke="#00AD9F" stroke-miterlimit="10" stroke-linecap="round" stroke-linejoin="round"/>
<path opacity="0.2" d="M321.265 156.058C319.431 164.15 314.548 171.139 310.232 178.242C307.961 181.972 305.836 185.816 303.856 189.708C300.952 184.81 298.957 179.41 298.405 173.767C297.513 164.344 301.115 154.257 308.772 148.711C312.358 146.133 316.56 144.657 320.956 143.992C322.092 147.852 322.141 152.149 321.265 156.058Z" fill="#5275A0"/>
<path d="M382.672 226.455C382.169 229.552 381.244 232.536 379.914 235.406C375.193 245.623 365.28 254.38 350.435 261.516C350.435 261.516 349.608 245.364 349.429 241.034C348.699 222.514 328.598 212.281 315.878 198.772C309.405 191.88 304.489 183.188 303.581 173.765C302.688 164.343 306.29 154.256 313.948 148.71C320.372 144.072 328.776 143.067 336.693 143.667C349.445 144.688 362.311 150.024 370.244 159.981C370.585 160.354 370.877 160.759 371.169 161.149C376.02 167.781 378.519 175.857 380.352 183.901C383.532 197.831 384.959 212.329 382.672 226.455Z" fill="#00AD9F"/>
<path d="M319.431 158.635C333.351 165.835 347.288 174.528 355.383 187.923C366.691 206.621 364.225 230.947 355.513 250.975" stroke="#00AD9F" stroke-miterlimit="10" stroke-linecap="round" stroke-linejoin="round"/>
<path d="M615.484 345.893C624.358 331.298 619.816 312.518 622.914 295.734C625.283 282.825 632.47 270.857 642.756 262.683C649.213 257.559 658.282 253.894 665.567 257.737C667.141 258.564 669.023 259.748 670.548 258.807C671.456 258.256 671.813 257.121 672.04 256.083C673.89 247.018 669.526 237.109 673.095 228.563C675.009 223.957 678.984 220.519 683.186 217.843C691.298 212.67 700.789 209.702 710.393 209.313C712.941 209.216 715.601 209.313 717.889 210.448C722.01 212.508 723.892 217.649 723.34 222.222C722.788 226.795 720.257 230.898 717.467 234.563C708.155 246.742 694.51 257.251 692.709 272.462C692.482 274.376 692.482 276.419 693.358 278.138C694.218 279.808 695.808 280.992 696.7 282.63C699.572 287.901 694.024 293.885 688.621 296.463C683.673 298.831 678.319 300.307 672.851 300.826C669.087 301.183 664.853 301.264 662.29 304.037C657.569 309.161 662.987 317.351 661.998 324.243C661.381 328.541 658.266 332.011 655.119 335.027C649.294 340.622 642.935 345.633 636.137 349.996C630.621 353.531 624.796 356.645 619.913 360.991C615.03 365.337 611.087 371.224 610.763 377.759" fill="#52D2BC"/>
<path d="M627.165 331.687C628.609 324.616 631.902 318.064 635.163 311.626C640.258 301.555 645.449 291.339 653.139 283.084C658.98 276.808 666.102 271.846 672.04 265.667C676.275 261.256 679.876 256.261 682.715 250.845C684.257 247.91 685.587 244.828 687.648 242.25C690.114 239.185 693.472 236.995 696.408 234.368C700.367 230.833 703.547 226.438 705.688 221.573" stroke="#00AD9F" stroke-miterlimit="10" stroke-linecap="round" stroke-linejoin="round"/>
<path d="M742.857 356.012C740.862 363.699 737.893 371.305 732.799 377.402C729.278 381.603 724.898 384.927 720.112 387.635C717.645 389.046 715.05 390.279 712.438 391.381C702.282 395.647 691.363 398.063 680.363 398.485C664.334 399.085 647.851 395.549 632.47 400.122C625.413 402.214 618.907 406.025 613.57 411.069C610.227 414.199 607.356 417.815 605.084 421.788L607.177 408.49C611.055 394.187 615.013 379.624 622.931 367.088C628.041 358.964 634.677 351.893 641.734 345.39C653.01 334.979 665.518 325.816 679.325 319.118C690.487 313.702 702.882 309.891 715.212 311.399C727.526 312.891 739.629 320.675 743.474 332.465C745.94 340.038 744.869 348.309 742.857 356.012Z" fill="#5193F4"/>
<path d="M617.658 398.371C629.436 380.954 647.072 367.559 667.027 360.91C679.454 356.758 692.612 355.185 705.202 351.552C717.791 347.92 730.365 341.757 737.747 330.924" stroke="#0B43A4" stroke-miterlimit="10" stroke-linecap="round" stroke-linejoin="round"/>
<path d="M625.413 526.112C626.111 508.225 635.358 491.716 646.602 477.769C655.963 466.142 667.271 455.503 681.24 450.201C685.62 448.546 690.422 447.427 694.965 448.546C699.508 449.665 703.628 453.541 703.71 458.228C703.774 462.169 701.13 465.623 698.339 468.412C689.157 477.607 677.297 483.494 666.168 490.208C647.056 501.754 628.885 517.161 621.309 538.162" fill="#52D2BC"/>
<path d="M632.487 510.463C644.168 484.418 674.409 461.131 694.348 458.228" stroke="#00AD9F" stroke-miterlimit="10" stroke-linecap="round" stroke-linejoin="round"/>
<path d="M618.112 540.335C617.95 537.335 627.733 529.502 629.94 527.507C642.156 516.431 656.66 508.29 671.992 503.49C678.189 501.544 684.792 500.133 690.99 501.625C697.204 503.117 702.898 508.209 703.498 514.89C704.083 521.377 699.735 527.734 694.17 530.864C688.605 534.01 682.115 534.48 675.918 534.124C666.346 533.572 656.936 531.188 647.332 531.253C637.711 531.334 624.213 532.307 618.112 540.335Z" fill="#00AD9F"/>
<path d="M628.074 531.237C647.721 520.599 677.427 513.674 699.004 516.285" stroke="#00AD9F" stroke-miterlimit="10" stroke-linecap="round" stroke-linejoin="round"/>
<path opacity="0.2" d="M382.672 226.454C382.169 229.552 381.244 232.536 379.914 235.406C373.018 220.795 366.951 201.723 365.491 178.306C365.101 171.965 366.87 165.446 370.244 159.981C370.585 160.354 370.877 160.759 371.169 161.148C376.02 167.781 378.518 175.857 380.352 183.901C383.531 197.831 384.959 212.329 382.672 226.454Z" fill="#5275A0"/>
<path d="M450.633 225.627C465.3 220.422 480.55 216.27 493.886 208.226C497.926 205.794 501.803 202.972 504.675 199.242C507.53 195.512 509.299 190.745 508.666 186.074C508.017 181.339 504.983 176.798 506.005 172.111C506.687 169.03 508.991 166.63 510.759 164.003C514.961 157.792 516.21 149.667 514.085 142.466C511.781 134.747 505.989 128.552 502.696 121.206C500.003 115.189 499.045 108.427 499.954 101.908C487.64 102.07 476.413 108.8 464.31 111.038C455.046 112.757 445.425 111.816 436.243 113.925C419.516 117.768 405.823 132.493 403.227 149.456C395.472 148.126 387.117 150.916 381.714 156.656C375.987 162.754 372.759 171.43 373.278 179.782C377.058 240.482 411.826 272.138 411.826 272.138C411.826 272.138 445.036 227.622 450.633 225.627Z" fill="#7EE8D4"/>
<path d="M417.813 225.206C416.288 210.237 421.528 195.431 427.531 181.631C433.387 168.187 440.137 155.002 449.189 143.456C458.242 131.909 469.745 122.017 483.324 116.438" stroke="#00AD9F" stroke-miterlimit="10" stroke-linecap="round" stroke-linejoin="round"/>
<path d="M430.873 125.633C429.331 138.98 430.418 155.067 433.89 168.041" stroke="#00AD9F" stroke-miterlimit="10" stroke-linecap="round" stroke-linejoin="round"/>
<path d="M436.389 163.257C451.639 153.478 475.099 147.542 493.188 148.58" stroke="#00AD9F" stroke-miterlimit="10" stroke-linecap="round" stroke-linejoin="round"/>
<path d="M399.09 165.754C417.456 173.49 418.202 200.475 418.705 208.145" stroke="#00AD9F" stroke-miterlimit="10" stroke-linecap="round" stroke-linejoin="round"/>
<path d="M423.702 190.988C437.752 180.917 458.048 177.885 472.99 181.647" stroke="#00AD9F" stroke-miterlimit="10" stroke-linecap="round" stroke-linejoin="round"/>
<path d="M462.039 118.692C457.821 123.898 456.766 130.093 457.188 134.39" stroke="#00AD9F" stroke-miterlimit="10" stroke-linecap="round" stroke-linejoin="round"/>
<path d="M461.179 130.58C467.653 127.271 476.316 126.509 485.58 128.828" stroke="#00AD9F" stroke-miterlimit="10" stroke-linecap="round" stroke-linejoin="round"/>
<path d="M99.9391 159.948C101.659 159.851 113.437 151.143 117.964 148.207C119.245 147.38 120.527 146.521 121.419 145.288C122.312 144.056 122.734 142.369 122.085 140.991C121.273 139.288 119.943 137.585 116.585 137.585C110.728 137.601 108.684 139.531 105.828 142.467C96.4023 152.213 99.9391 159.948 99.9391 159.948Z" fill="#4A49CA"/>
<path d="M152.716 195.091C157.842 197.394 163.31 199.68 168.891 198.967C171.048 198.691 173.417 197.702 174.131 195.658C174.748 193.907 173.904 191.88 172.509 190.647C171.113 189.415 169.28 188.815 167.463 188.377C160.649 186.707 151.061 187.631 144.312 189.545C144.295 189.545 149.649 193.712 152.716 195.091Z" fill="#4A49CA"/>
<path d="M186.461 119.422C184.173 117.979 181.642 116.049 181.658 113.341C181.658 110.633 184.481 108.573 187.191 108.557C189.9 108.541 192.415 110.016 194.459 111.816C203.074 119.39 202.003 128.017 202.003 128.017C202.003 128.017 189.008 121.028 186.461 119.422Z" fill="#4A49CA"/>
<path d="M193.259 96.3453C191.247 95.4858 189.186 94.4479 188.002 92.5992C187.434 91.7073 187.11 90.5721 187.451 89.5666C188.035 87.8963 189.089 86.3881 193.324 87.1503C206.708 89.5828 209.629 98.7455 209.629 98.7455C209.629 98.7455 196.812 97.8697 193.259 96.3453Z" fill="#4A49CA"/>
<path d="M232.472 116.617C237.842 116.146 243.39 113.487 246.765 109.286C248.047 107.697 249.215 105.962 249.637 103.967C250.058 101.973 249.604 99.7022 248.063 98.3724C246.181 96.7507 243.196 97.0102 241.135 98.3724C239.059 99.7347 237.728 101.973 236.657 104.194C235.23 107.178 232.472 116.617 232.472 116.617Z" fill="#4A49CA"/>
<path d="M136.605 312.291C123.61 300.842 110.598 289.376 97.6028 277.927C90.6752 271.83 83.6016 265.537 79.2212 257.413C69.7951 239.947 75.2301 217.259 87.9658 202.032C100.702 186.804 119.359 177.82 138.114 171.284C156.852 164.749 176.37 160.159 194.232 151.499C205.443 146.067 216.702 137.991 219.785 125.925C221.634 118.676 220.077 110.616 215.664 104.584C211.251 98.5346 204.047 94.6101 196.568 94.1722" stroke="#0B43A4" stroke-miterlimit="10" stroke-linecap="round" stroke-linejoin="round"/>
<path d="M241.557 104.162C238.004 115.06 224.165 121.693 217.854 131.147" stroke="#0B43A4" stroke-miterlimit="10" stroke-linecap="round" stroke-linejoin="round"/>
<path d="M191.879 116.698C194.605 119.568 197.866 121.952 200.251 125.114C205.28 131.812 205.686 142.694 198.255 149.44" stroke="#0B43A4" stroke-miterlimit="10" stroke-linecap="round" stroke-linejoin="round"/>
<path d="M121.874 177.739C133.344 186.577 148.416 192.464 162.887 193.015" stroke="#0B43A4" stroke-miterlimit="10" stroke-linecap="round" stroke-linejoin="round"/>
<path d="M95.6233 193.826C90.3344 178.257 96.0938 159.608 109.235 149.732" stroke="#0B43A4" stroke-miterlimit="10" stroke-linecap="round" stroke-linejoin="round"/>
<path d="M514.864 128.05C514.247 126.12 514.28 123.752 515.691 122.309C516.827 121.174 518.709 120.655 520.185 121.303C531.591 126.314 530.358 144.104 530.358 144.104C530.358 144.104 519.553 142.548 514.864 128.05Z" fill="#4A49CA"/>
<path d="M514.588 161.376C507.206 174.706 533.424 173.684 542.882 165.835C542.882 165.835 520.948 149.894 514.588 161.376Z" fill="#4A49CA"/>
<path d="M547.75 129.071C545.965 126.639 545.332 123.006 547.279 120.687C548.723 118.968 551.238 118.433 553.444 118.855C555.651 119.276 558.96 121.32 560.372 123.071C569.003 133.807 564.947 144.299 564.947 144.299C564.947 144.299 550.654 133.061 547.75 129.071Z" fill="#4A49CA"/>
<path d="M651.874 162.073C651.241 159.997 651.387 157.467 652.993 156.008C654.015 155.083 655.459 154.759 656.822 154.856C658.185 154.954 659.499 155.456 660.748 156.024C663.425 157.24 665.502 159.381 666.784 162.024C670.028 168.706 667.822 176.96 667.822 176.96C667.822 176.96 653.464 167.246 651.874 162.073Z" fill="#4A49CA"/>
<path d="M619.118 186.528C614.478 182.458 607.389 181.258 601.727 183.739C600.283 184.371 598.92 185.263 598.011 186.528C595.935 189.399 596.665 193.583 598.822 196.388C600.964 199.194 604.225 200.896 607.454 202.356C613.294 204.999 622.347 205.535 628.561 207.124C628.545 207.108 628.528 194.783 619.118 186.528Z" fill="#4A49CA"/>
<path d="M523.041 130.92C526.902 143.537 537.82 153.072 549.972 158.213C562.124 163.37 575.508 164.733 588.698 165.576C601.872 166.435 615.208 166.857 627.944 170.311C640.355 173.684 652.734 180.69 658.055 192.399C664.545 206.654 658.802 223.681 649.684 236.428C640.582 249.158 628.317 259.424 619.507 272.365C615.468 278.3 612.077 285.274 612.904 292.409C613.991 301.928 622.022 308.934 629.469 314.967" stroke="#0B43A4" stroke-miterlimit="10" stroke-linecap="round" stroke-linejoin="round"/>
<path d="M553.412 126.282C562.14 135.931 569.116 151.029 570.82 163.938" stroke="#0B43A4" stroke-miterlimit="10" stroke-linecap="round" stroke-linejoin="round"/>
<path d="M524.046 163.581C529.043 164.911 534.105 166.241 539.264 166.257C544.424 166.273 550.41 163.403 554.125 159.819" stroke="#0B43A4" stroke-miterlimit="10" stroke-linecap="round" stroke-linejoin="round"/>
<path d="M660.424 162.851C665.096 167.36 667.952 173.733 668.195 180.22C668.438 186.723 664.837 194.588 660.505 199.437" stroke="#0B43A4" stroke-miterlimit="10" stroke-linecap="round" stroke-linejoin="round"/>
<path d="M611.477 192.334C620.822 200.929 628.95 207.886 639.333 215.184C644.07 218.524 653.48 222.789 657.666 221.687" stroke="#0B43A4" stroke-miterlimit="10" stroke-linecap="round" stroke-linejoin="round"/>
<path opacity="0.2" d="M720.11 387.635C717.644 389.046 715.048 390.279 712.436 391.381C702.28 395.647 691.361 398.063 680.362 398.485C664.332 399.085 647.849 395.549 632.469 400.122C625.412 402.214 618.906 406.025 613.568 411.069C613.033 411.328 612.497 411.62 611.962 411.928C610.68 401.079 637.742 386.938 645.967 383.257C660.812 376.608 677.36 373.656 693.584 374.954C700.69 375.521 707.975 376.916 713.831 380.954C716.346 382.689 718.553 385.008 720.11 387.635Z" fill="#5275A0"/>
<path d="M693.569 381.441C700.676 382.008 707.96 383.403 713.817 387.441C719.674 391.479 723.811 398.695 722.448 405.685C720.858 413.826 712.438 419.129 704.196 420.118C695.954 421.124 687.729 418.853 679.601 417.183C661.609 413.485 643.048 412.626 624.797 414.685C620.238 415.188 615.922 416.096 611.947 418.431C610.666 407.582 637.743 393.441 645.969 389.76C660.814 383.095 677.362 380.143 693.569 381.441Z" fill="#52D2BC"/>
<path d="M618.988 411.588C632.422 399.782 666.93 391.771 691.33 394.349C698.68 395.128 706.094 397.317 711.74 402.085" stroke="#00AD9F" stroke-miterlimit="10" stroke-linecap="round" stroke-linejoin="round"/>
<path d="M593.89 278.933L725.125 278.657C740.521 278.624 753.03 291.079 753.062 306.469C753.095 321.859 740.635 334.362 725.238 334.395L635.472 334.573" stroke="#0B43A4" stroke-miterlimit="10" stroke-linecap="round" stroke-linejoin="round" stroke-dasharray="4 4"/>
<path d="M196.828 375.245L105.049 375.44C96.3535 375.456 89.3285 382.511 89.3448 391.203C89.361 399.895 96.4184 406.917 105.114 406.901L131.867 406.852" stroke="#0B43A4" stroke-miterlimit="10" stroke-linecap="round" stroke-linejoin="round" stroke-dasharray="4 4"/>
<path d="M50.3423 446.276C18.9005 446.341 18.2515 493.224 58.2433 493.127C98.2513 493.046 623.044 491.959 647.786 491.911C672.527 491.862 675.139 453.266 644.557 453.331C583.669 453.46 581.657 424.432 615.451 424.367" stroke="#C8DBFB" stroke-miterlimit="10" stroke-linecap="round" stroke-linejoin="round" stroke-dasharray="4 4"/>
<path d="M57.6919 444.979C58.4057 449.211 55.5666 453.217 51.3321 453.947C47.0977 454.66 43.0904 451.822 42.3603 447.59C41.6465 443.357 44.4857 439.351 48.7201 438.622C52.9545 437.908 56.978 440.746 57.6919 444.979Z" fill="#5193F4"/>
<path d="M630.54 424.578C631.253 428.81 628.414 432.816 624.18 433.546C619.945 434.259 615.938 431.421 615.208 427.189C614.494 422.956 617.333 418.95 621.568 418.221C625.802 417.507 629.809 420.361 630.54 424.578Z" fill="#0B43A4"/>
<path opacity="0.2" d="M638.992 560.12L150.833 561.125C144.327 561.141 139.022 555.871 139.022 549.368L138.357 226.114C138.341 219.611 143.613 214.308 150.119 214.308L638.279 213.302C644.784 213.286 650.09 218.557 650.09 225.06L650.755 548.314C650.771 554.817 645.514 560.103 638.992 560.12Z" fill="#5275A0"/>
<path d="M629.437 553.939L141.277 554.945C134.772 554.961 129.466 549.69 129.466 543.187L128.801 219.933C128.785 213.43 134.058 208.127 140.564 208.127L628.723 207.122C635.229 207.106 640.534 212.376 640.534 218.879L641.199 542.133C641.215 548.636 635.943 553.923 629.437 553.939Z" fill="white"/>
<path d="M627.928 207.108L141.862 208.113C134.772 208.129 129.045 213.886 129.045 220.973L129.061 232.13L640.81 231.076L640.794 219.919C640.778 212.832 635.018 207.091 627.928 207.108Z" fill="#0056EC"/>
<path d="M142.446 554.946L215.891 554.8L215.226 231.952L128.947 232.13L129.58 542.167C129.596 549.238 135.356 554.963 142.446 554.946Z" fill="#C8DBFB"/>
<path d="M628.869 210.351C633.574 210.351 637.403 214.178 637.419 218.881L638.084 542.135C638.084 544.422 637.208 546.562 635.586 548.184C633.98 549.806 631.838 550.698 629.551 550.698L141.375 551.703C136.67 551.703 132.841 547.876 132.825 543.173L132.16 219.919C132.16 217.632 133.036 215.492 134.658 213.87C136.264 212.248 138.406 211.356 140.694 211.356L628.837 210.351H628.869ZM628.869 207.108C628.869 207.108 628.853 207.108 628.837 207.108L140.677 208.113C134.172 208.129 128.899 213.416 128.915 219.919L129.58 543.173C129.596 549.676 134.869 554.93 141.375 554.93C141.375 554.93 141.391 554.93 141.407 554.93L629.567 553.925C636.073 553.909 641.345 548.622 641.329 542.119L640.664 218.865C640.648 212.362 635.375 207.108 628.869 207.108Z" fill="#0056EC"/>
<path d="M203.496 530.264L146.891 530.378C144.392 530.378 142.364 528.367 142.364 525.869V525.302C142.364 522.804 144.376 520.777 146.874 520.777L203.479 520.664C205.978 520.664 208.006 522.674 208.006 525.172V525.74C208.022 528.237 205.994 530.264 203.496 530.264Z" fill="white"/>
<path d="M196.698 311.237L148.513 311.334C143.938 311.351 140.223 307.637 140.207 303.064L140.109 254.899C140.093 250.326 143.808 246.612 148.384 246.596L196.568 246.499C201.144 246.482 204.859 250.196 204.875 254.769L204.972 302.934C204.972 307.523 201.273 311.237 196.698 311.237Z" fill="white"/>
<path d="M402.984 455.52L235.1 455.86C231.839 455.86 229.194 453.233 229.178 449.974V449.244C229.178 445.984 231.806 443.341 235.067 443.325L402.952 442.984C406.213 442.984 408.857 445.611 408.874 448.871V449.601C408.874 452.877 406.245 455.52 402.984 455.52Z" fill="#C8DBFB"/>
<path d="M393.282 264.321L260.62 264.597C257.359 264.597 254.714 261.97 254.698 258.71V257.98C254.698 254.721 257.326 252.077 260.587 252.061L393.25 251.785C396.511 251.785 399.155 254.413 399.172 257.672V258.402C399.172 261.678 396.543 264.321 393.282 264.321Z" fill="#C8DBFB"/>
<path d="M603.008 398.452L426.119 398.825C422.858 398.825 420.214 396.198 420.198 392.938V392.209C420.198 388.949 422.826 386.306 426.087 386.289L602.976 385.933C606.237 385.933 608.881 388.56 608.897 391.819V392.549C608.897 395.793 606.269 398.436 603.008 398.452Z" fill="#C8DBFB"/>
<path d="M403.033 481.451L235.149 481.791C231.888 481.791 229.243 479.164 229.227 475.905V475.175C229.227 471.915 231.855 469.272 235.116 469.256L403.001 468.915C406.262 468.915 408.906 471.542 408.922 474.802V475.532C408.939 478.791 406.294 481.435 403.033 481.451Z" fill="#C8DBFB"/>
<path d="M403.081 507.366L235.197 507.706C231.936 507.706 229.292 505.079 229.275 501.819V501.09C229.275 497.83 231.904 495.187 235.165 495.17L403.049 494.83C406.31 494.83 408.954 497.457 408.971 500.717V501.446C408.987 504.706 406.342 507.366 403.081 507.366Z" fill="#C8DBFB"/>
<path d="M599.406 524.264L430.208 524.621C424.821 524.637 420.441 520.274 420.441 514.89L420.295 442.254C420.279 436.87 424.643 432.492 430.029 432.492L599.228 432.135C604.614 432.119 608.994 436.481 608.994 441.865L609.14 514.501C609.157 519.885 604.793 524.264 599.406 524.264Z" fill="#C8DBFB"/>
<path d="M157.112 219.854C157.112 222.141 155.262 223.989 152.991 223.989C150.72 223.989 148.854 222.141 148.854 219.87C148.854 217.584 150.704 215.735 152.975 215.735C155.246 215.735 157.112 217.584 157.112 219.854Z" fill="#C8DBFB"/>
<path d="M170.496 223.973C172.781 223.973 174.634 222.122 174.634 219.838C174.634 217.554 172.781 215.703 170.496 215.703C168.212 215.703 166.359 217.554 166.359 219.838C166.359 222.122 168.212 223.973 170.496 223.973Z" fill="#C8DBFB"/>
<path d="M192.139 219.789C192.139 222.076 190.29 223.925 188.018 223.925C185.747 223.925 183.881 222.076 183.881 219.805C183.881 217.519 185.731 215.67 188.002 215.67C190.274 215.654 192.123 217.503 192.139 219.789Z" fill="#C8DBFB"/>
<path d="M248.205 259.593C248.864 253.025 244.071 247.168 237.5 246.509C230.93 245.851 225.069 250.642 224.411 257.21C223.752 263.778 228.545 269.636 235.116 270.294C241.687 270.952 247.547 266.161 248.205 259.593Z" fill="#C8DBFB"/>
<path d="M200.056 321.34L147.086 321.454C145.853 321.454 144.863 320.465 144.847 319.232V318.956C144.847 317.724 145.836 316.735 147.069 316.718L200.04 316.605C201.273 316.605 202.263 317.594 202.279 318.827V319.102C202.279 320.335 201.289 321.34 200.056 321.34Z" fill="white"/>
<path d="M200.073 331.46L147.102 331.573C145.869 331.573 144.879 330.584 144.863 329.351V329.076C144.863 327.843 145.852 326.854 147.085 326.838L200.056 326.724C201.289 326.724 202.279 327.713 202.295 328.946V329.222C202.295 330.454 201.306 331.443 200.073 331.46Z" fill="white"/>
<path d="M260.717 352.834L245.743 352.98L245.856 415.707L232.926 415.74C228.367 415.756 224.668 412.058 224.652 407.501L224.408 291.501C224.392 286.895 228.123 283.149 232.731 283.149L260.555 283.084L260.717 352.834Z" fill="#C8DBFB"/>
<path d="M357.882 282.89V284.511C362.36 284.511 366.01 288.144 366.01 292.62L366.237 405.717C366.237 407.89 365.393 409.934 363.868 411.474C362.343 413.015 360.299 413.858 358.125 413.875L234.386 414.134C229.908 414.134 226.258 410.501 226.258 406.025L226.031 292.928C226.031 290.755 226.874 288.712 228.399 287.171C229.924 285.63 231.969 284.787 234.143 284.771L357.866 284.511L357.882 282.89ZM357.882 282.89H357.866L234.143 283.149C228.756 283.165 224.392 287.528 224.408 292.912L224.635 406.009C224.652 411.393 229.016 415.739 234.386 415.739H234.402L358.125 415.48C363.512 415.464 367.876 411.101 367.86 405.717L367.632 292.62C367.632 287.236 363.268 282.873 357.882 282.89Z" fill="#C8DBFB"/>
<path d="M564.476 375.959L399.448 338.676C394.191 337.492 390.898 332.271 392.082 327.016L410.642 244.909C411.826 239.655 417.05 236.363 422.307 237.547L587.336 274.83C592.592 276.014 595.886 281.236 594.701 286.49L576.141 368.597C574.957 373.851 569.733 377.159 564.476 375.959Z" fill="#C8DBFB"/>
<path d="M245.094 599.267L222.007 599.316L216.345 569.915L250.626 569.85L245.094 599.267Z" fill="#0056EC"/>
<path d="M222.738 569.898C222.738 572.299 222.283 576.32 223.889 576.385C225.496 576.45 224.83 572.558 226.647 572.672C227.816 572.736 226.112 585.451 230.509 585.759C233.526 585.97 232.975 579.531 233.283 575.493C233.494 572.769 236.982 573.304 237.015 575.104C237.047 577.131 236.917 578.477 237.015 580.78C237.177 584.624 243.082 583.602 242.871 578.477C242.66 573.353 242.855 569.882 242.855 569.882L222.738 569.898Z" fill="#C8DBFB"/>
<path d="M217.221 587.656C216.751 587.656 216.296 587.607 215.858 587.51C214.155 587.137 212.971 586.245 212.305 584.85C209.953 579.855 216.15 570.514 216.394 570.093L216.718 571.779C216.67 571.877 211.267 579.904 213.392 584.396C213.895 585.466 214.788 586.131 216.134 586.423C216.507 586.504 216.897 586.537 217.286 586.537C225.609 586.521 239.821 571.033 239.983 570.855C240.567 570.158 241.654 570.823 241.265 571.406C240.6 572.152 226.161 587.64 217.221 587.656Z" fill="#0C2340"/>
<path opacity="0.2" d="M459.865 185.523C427.044 184.274 381.861 208.535 397.89 267.857C397.549 272.868 400.551 276.452 403.747 275.479C406.943 274.506 404.12 264.986 404.12 264.986C409.588 220.876 419.809 213.254 437.152 213.416L477.858 213.335C487.916 214.811 506.201 221.849 508.942 257.153L519.082 259.018C519.877 233.509 513.712 187.582 459.865 185.523Z" fill="#5275A0"/>
<path d="M459.865 180.35C427.044 179.101 381.861 203.361 397.89 262.683L404.12 259.813C409.588 215.703 419.809 208.081 437.152 208.243L477.858 208.162C487.916 209.637 506.687 218.573 509.429 253.877L519.066 253.861C519.877 228.336 513.712 182.409 459.865 180.35Z" fill="#EF832B"/>
<path d="M453.149 181.323L448.282 192.026C448.282 192.026 448.866 198.058 454.788 197.929C460.709 197.799 461.504 195.075 461.504 195.075L462.283 182.782L453.149 181.323Z" fill="#FFB9A3"/>
<path d="M478.215 172.387C472.666 182.198 470.2 185.263 462.932 186.739C453.522 188.653 442.976 182.312 447.876 166.679C451.867 153.932 457.935 155.894 463.856 156.381C469.778 156.851 484.217 161.781 478.215 172.387Z" fill="#FFB9A3"/>
<path d="M456.118 164.635C454.641 163.873 452.743 164.522 451.591 165.722C450.407 166.97 449.839 168.819 450.342 170.457C448.071 170.49 446.075 172.711 446.286 174.982C444.729 171.365 445.572 167.587 445.264 163.873C444.956 160.159 445.361 156.138 447.762 153.3C448.752 152.132 450.018 151.24 451.364 150.526C456.475 147.802 462.916 147.721 468.107 150.283C469.178 150.818 471.871 152.505 475.635 151.597C482.806 149.862 486.992 154.71 482.692 159.251C484.071 159.754 485.596 160.37 486.213 161.7C486.375 162.041 486.456 162.462 486.245 162.77C486.099 162.981 485.84 163.095 485.58 163.176C484.38 163.581 483.066 163.678 481.8 163.468C482.287 163.873 484.948 164.035 485.742 165.592C487.884 169.711 479.415 167.635 478.117 167.214C479.594 167.489 483.455 170.571 482.222 172.695C481.979 173.117 476.754 176.149 471.271 169.776C469.989 168.3 468.399 166.922 466.517 166.419C465.041 166.03 463.483 166.565 462.039 167.116C460.985 167.506 458.308 169.144 457.545 168.171C456.75 167.133 457.837 165.495 456.118 164.635Z" fill="#0C2340"/>
<path d="M510.484 253.861C509.023 258.872 507.563 259.359 509.315 260.154C511.084 260.948 512.512 258.143 512.512 258.143L520.656 259.764C520.656 259.764 518.823 254.478 517.541 253.845C516.259 253.213 510.484 253.861 510.484 253.861Z" fill="#FFB9A3"/>
<path d="M404.12 259.813C405.191 262.456 405.483 262.473 406.959 265.651C409.798 271.716 403.163 281.301 399.042 270.841C397.906 267.97 397.89 262.7 397.89 262.7L404.12 259.813Z" fill="#FFB9A3"/>
<path d="M467.718 151.143C473.282 151.451 480.129 147.526 484.493 152.553C484.899 153.024 485.71 152.408 485.353 151.889C481.183 145.905 473.444 150.364 467.734 150.202C467.117 150.202 467.133 151.11 467.718 151.143Z" fill="#0C2340"/>
<path d="M469.957 148.078C466.16 148.742 462.494 146.942 458.681 147.542C455.582 148.029 452.824 149.618 450.488 151.645C449.888 152.164 450.667 153.186 451.348 152.748C454.625 150.591 457.773 148.726 461.861 149.034C464.83 149.245 467.345 150.137 470.297 149.245C471.044 149.018 470.719 147.948 469.957 148.078Z" fill="#0C2340"/>
<path d="M448.314 153.267C445.637 154.937 444.096 157.159 443.771 160.354C443.544 162.657 443.479 167.927 445.799 169.225C446.351 169.533 446.935 168.803 446.481 168.333C444.988 166.824 444.858 162.754 444.972 160.84C445.134 157.905 446.367 155.667 448.703 153.916C449.076 153.64 448.736 153.008 448.314 153.267Z" fill="#0C2340"/>
<path d="M489.474 162.397C488.095 160.013 484.574 157.905 481.865 159.413C481.443 159.657 481.638 160.305 482.108 160.305C483.293 160.321 484.379 160.175 485.531 160.532C486.845 160.938 487.949 161.7 488.727 162.819C489.052 163.273 489.75 162.884 489.474 162.397Z" fill="#0C2340"/>
<path d="M308.935 409.788C326.148 416.112 341.09 435.832 337.651 450.184C333.773 466.385 322.595 473.375 322.595 473.375L319.074 466.872C319.074 466.872 328.014 452.909 327.235 446.309C325.986 435.751 312.65 428.681 312.65 428.681L308.935 409.788Z" fill="#0B43A4"/>
<path d="M266.574 592.586C266.574 592.586 256.013 596.851 253.368 599.267L274.297 599.219L274.281 592.57L266.574 592.586Z" fill="#0C2340"/>
<path d="M312.828 592.181C312.828 592.181 315.83 595.651 316.381 599.138L302.104 599.17C302.348 596.77 303.37 594.451 304.765 592.197L312.828 592.181Z" fill="#0C2340"/>
<path d="M313.704 592.489L303.954 592.505C304.149 581.023 301.78 541.892 299.492 512.636C298.146 495.479 296.815 481.694 296.037 478.905L301.261 477.753L320.973 473.375C324.347 488.781 316.56 559.52 313.704 592.489Z" fill="#047F76"/>
<path d="M277.866 478.288C270.257 490.257 268.294 576.791 265.114 592.829L274.362 593.348C274.362 593.348 284.988 538.794 307.604 477.461L277.866 478.288Z" fill="#009790"/>
<path opacity="0.2" d="M311.498 477.461C307.036 489.576 303.029 501.43 299.492 512.636C298.146 495.478 296.815 481.694 296.037 478.905L301.261 477.753L311.498 477.461Z" fill="#5275A0"/>
<path d="M277.866 478.288C270.257 490.257 268.294 576.791 265.114 592.829L274.362 593.348C274.362 593.348 284.988 538.794 307.604 477.461L277.866 478.288Z" fill="#009790"/>
<path d="M283.674 381.684C283.674 381.684 277.753 404.225 292.549 404.209L291.673 409.966L302.9 411.199L300.466 403.171C300.466 403.171 302.689 388.998 302.835 386.435C303.11 381.651 289.71 373.235 283.674 381.684Z" fill="#FFB9A3"/>
<path d="M247.104 356.414L242.74 356.423L242.777 374.829L247.141 374.82L247.104 356.414Z" fill="#0C2340"/>
<path d="M257.424 356.385L232.407 356.434C230.655 356.434 229.227 355.023 229.227 353.271V352.623C229.227 350.871 230.639 349.444 232.391 349.444L257.408 349.396C259.16 349.396 260.588 350.806 260.588 352.558V353.207C260.604 354.958 259.176 356.385 257.424 356.385Z" fill="#0056EC"/>
<path d="M241.573 379.624C241.46 375.456 238.004 376.543 239.902 369.732C241.07 365.515 249.783 370.413 248.696 373.332C247.609 376.251 246.359 380.873 246.359 380.873L241.573 379.624Z" fill="#FFB9A3"/>
<path d="M292.646 408.653C270.533 410.112 269.073 417.572 259.176 416.404C244.526 414.685 247.09 387.489 248.907 377.743L240.162 377.759C240.162 377.759 224.392 439.692 274.2 428.243C272.285 439.092 284.68 456.817 272.658 478.321C291.559 483.462 309.211 484.71 324.315 478.224C321.671 474.656 329.734 438.67 313.948 412.772C310.866 407.696 294.269 408.539 292.646 408.653Z" fill="#0056EC"/>
<path d="M292.646 408.653C270.533 410.112 269.073 417.572 259.176 416.404C244.526 414.685 247.09 387.489 248.907 377.743L240.162 377.759C240.162 377.759 224.392 439.692 274.2 428.243C272.285 439.092 284.68 456.817 272.658 478.321C291.559 483.462 309.211 484.71 324.315 478.224C321.671 474.656 329.734 438.67 313.948 412.772C310.866 407.696 294.269 408.539 292.646 408.653Z" fill="#0056EC"/>
<path d="M289.596 386.014C291.04 386.387 292.711 386.662 293.49 387.879C293.993 388.673 293.96 389.662 293.912 390.587C294.171 389.614 295.258 388.916 296.28 389.046C297.319 389.16 298.195 390.084 298.211 391.09C298.227 391.56 298.065 392.014 297.887 392.452C297.449 393.554 296.897 394.592 296.248 395.582C298.049 396.247 299.574 401.533 300.466 403.171C303.5 402.409 310.265 399.798 310.849 389.046C311.125 384.035 309.6 378.035 304.165 374.71C300.32 372.359 293.96 372.326 289.564 373.445C285.995 374.354 280.316 377.921 282.961 382.073C284.291 384.165 287.211 385.397 289.596 386.014Z" fill="#EF832B"/>
<path d="M308.546 379.17C310.606 378.489 313.218 378.846 314.451 380.565C315.408 381.911 315.327 383.662 315.635 385.268C315.782 386.046 316.057 386.824 316.658 387.36C317.371 387.992 318.41 388.154 319.383 388.203C321.768 388.333 324.169 388.025 326.522 388.43C328.874 388.835 331.275 390.149 331.94 392.338C332.314 393.555 332.103 394.884 332.557 396.068C333.222 397.852 335.12 398.874 336.775 399.912C340.296 402.117 343.297 405.101 345.455 408.555C346.834 410.745 347.889 413.177 348.051 415.723C348.213 418.269 350.063 421.642 349.56 424.14C349.024 426.848 346.363 430.513 341.107 432.2C332.022 435.119 329.134 436.384 320.422 431.21C319.367 430.594 317.323 428.47 316.366 427.708C315.619 427.108 315.149 426.248 314.889 425.356C314.159 422.859 315.003 420.167 316.301 417.896C317.599 415.626 319.367 413.615 320.697 411.361C321.492 409.999 322.141 408.49 322.076 406.934C322.044 406.35 321.898 405.75 321.476 405.328C321.103 404.971 320.584 404.793 320.065 404.696C318.15 404.323 316.041 404.712 314.321 403.852C312.634 403.025 311.709 400.982 312.228 399.23C312.569 398.063 313.461 397.074 313.705 395.89C314.062 394.171 312.991 392.419 311.498 391.414C310.006 390.408 308.173 390.019 306.372 389.727C305.479 389.581 304.555 389.435 303.841 388.916C302.948 388.284 302.543 387.165 302.559 386.111C302.624 382.738 305.366 380.224 308.546 379.17Z" fill="#EF832B"/>
<path d="M306.906 388.235C317.841 390.603 304.035 400.966 309.827 405.928C311.482 407.339 313.396 406.901 315.327 407.161C322.757 408.182 318.685 413.226 318.182 417.183C318.101 417.783 319.091 417.896 319.22 417.329C319.853 414.604 322.352 411.264 321.07 408.361C319.934 405.798 317.111 406.107 314.791 406.025C311.887 405.944 308.691 406.025 309.778 400.268C310.021 398.987 311.044 397.69 311.546 396.474C312.114 395.079 312.504 393.701 312.195 392.176C311.66 389.598 309.518 388.089 307.052 387.684C306.696 387.603 306.533 388.154 306.906 388.235Z" fill="#EF832B"/>
<path d="M284.372 374.84C292.808 370.559 301.212 371.418 308.335 377.694C308.821 378.116 309.47 377.467 309.049 376.981C302.802 369.943 291.689 368.71 284.145 374.435C283.902 374.629 284.096 374.986 284.372 374.84Z" fill="#EF832B"/>
<path d="M567.738 401.29L564.087 408.653L573.011 412.302L573.968 403.836L567.738 401.29Z" fill="#FFB9A3"/>
<path d="M573.124 377.37C552.86 386.192 561.167 407.566 573.497 405.052C579.5 403.836 582.534 384.506 582.534 384.506L573.124 377.37Z" fill="#FFB9A3"/>
<path d="M579.857 374.337C579.192 373.105 578.559 371.775 577.456 370.899C576.353 370.024 574.617 369.732 573.595 370.689C572.232 371.954 573.027 374.321 574.406 375.57C573.222 375.716 571.81 374.889 570.934 375.716C570.269 376.332 570.496 377.435 570.885 378.262C571.778 380.192 573.238 381.878 575.039 383.014C574.017 383.597 572.816 384.733 573.433 385.738C573.611 386.014 573.887 386.208 574.065 386.484C574.455 387.133 574.082 387.976 573.676 388.625C573.043 389.679 572.346 390.7 571.615 391.69C572.313 390.733 574.017 391.122 574.52 392.192C575.022 393.263 574.584 394.576 573.789 395.452C573.351 395.938 572.8 396.344 572.151 396.49C571.599 396.62 569.133 404.209 571.048 405.701C573.416 407.534 581.463 405.944 582.631 403.869C583.8 405.133 585.503 406.09 587.19 405.75C588.878 405.409 590.159 403.333 589.251 401.874C591.068 402.539 593.291 401.955 594.54 400.463C595.789 398.971 595.968 396.684 594.978 395.014C595.968 394.722 596.178 393.376 595.919 392.371C595.4 390.344 593.745 388.625 591.717 388.057C592.739 388.073 593.55 387.035 593.599 386.014C593.647 384.992 593.112 384.019 592.463 383.224C590.565 380.873 588.31 380.257 585.503 379.9C582.68 379.559 581.123 376.673 579.857 374.337Z" fill="#4A49CA"/>
<path d="M560.875 591.191C560.875 591.191 549.016 596.884 547.426 598.651C547.426 598.651 570.756 599.705 572.589 598.603C574.422 597.5 568.857 591.175 568.857 591.175L560.875 591.191Z" fill="#0C2340"/>
<path d="M604.988 584.753C604.988 584.753 594.572 592.781 593.372 594.84C593.372 594.84 617.967 591.191 617.967 589.586C617.967 587.98 612.775 583.083 612.775 583.083L604.988 584.753Z" fill="#0C2340"/>
<path d="M572.329 481.289C571.891 483.705 555.651 547.762 602.116 586.18L615.566 583.099C615.566 583.099 599.91 568.423 592.528 541.989C585.552 516.999 591.084 514.55 595.27 500.798C599.91 485.57 596.454 474.51 596.454 474.51L572.329 481.289Z" fill="#D8742A"/>
<path d="M550.135 481.094C542.769 498.69 530.131 558.644 557.679 592.392L571.437 592.359C571.437 592.359 560.599 580.488 559.382 552.935C558.166 525.383 565.174 513.285 570.123 504.203C575.071 495.106 579.646 479.667 579.646 479.667L550.135 481.094Z" fill="#EF832B"/>
<path d="M540.433 372.035C536.783 384.911 535.582 408.718 553.883 418.302L566.132 415.318C566.132 415.318 544.035 403.739 548.772 374.483L540.433 372.035Z" fill="#0B43A4"/>
<path d="M506.671 365.45L516.178 364.283C516.178 364.283 515.026 404.209 561.167 407.582C596.389 410.145 599.147 476.213 599.147 476.213C587.79 483.851 568.743 486.17 544.326 484.418C544.326 484.418 545.884 437.292 542.006 424.383C542.006 424.367 503.669 412.318 506.671 365.45Z" fill="#0056EC"/>
<path d="M495.039 358.202C493.432 360.066 500.149 362.434 506.671 365.451L515.026 364.429C515.026 364.429 515.124 362.758 515.026 361.023C514.929 359.288 514.053 358.299 513.063 359.791C512.074 361.283 507.855 361.785 505.86 360.423C503.848 359.045 496.645 356.337 495.039 358.202Z" fill="#FFB9A3"/>
<path d="M540.433 372.035C537.366 369.035 538.194 369.213 538.194 369.213L547.523 371.321C547.523 371.321 549.567 366.764 551.319 366.651C553.055 366.521 550.005 369.781 550.703 370.997C551.4 372.213 548.788 374.5 548.788 374.5L540.433 372.035Z" fill="#FFB9A3"/>
<path d="M585.097 378.732C587.012 379.219 588.958 379.413 590.548 380.727C592.122 382.024 592.836 384.246 591.7 386.046C591.165 386.889 592.43 387.554 592.998 386.808C594.442 384.911 594.053 382.316 592.593 380.516C590.905 378.456 587.774 377.597 585.211 377.873C584.756 377.921 584.594 378.602 585.097 378.732Z" fill="#4A49CA"/>
<path d="M593.533 396.036C594.799 396.782 595.853 397.982 595.318 399.555C594.815 400.998 593.355 401.858 592.171 402.685C591.603 403.09 592.089 403.95 592.722 403.625C594.474 402.701 596.324 401.404 596.6 399.263C596.843 397.398 595.594 395.987 594.036 395.144C593.468 394.852 592.982 395.695 593.533 396.036Z" fill="#4A49CA"/>
<path d="M572.232 405.701C576.531 408.377 582.615 407.939 586.168 404.177C586.606 403.707 586.005 402.831 585.454 403.252C581.56 406.139 577.147 407.063 572.588 405.101C572.183 404.923 571.842 405.458 572.232 405.701Z" fill="#4A49CA"/>
<path d="M594.101 381.554C596.567 383.905 594.101 387.116 592.511 389.127C592.154 389.565 592.706 390.165 593.144 389.76C594.555 388.446 595.967 386.987 596.161 384.976C596.307 383.451 595.675 382.008 594.328 381.262C594.15 381.165 593.939 381.408 594.101 381.554Z" fill="#4A49CA"/>
<path d="M319.658 85.3015L315.862 76.0091L352.576 62.0625L319.658 85.3015Z" fill="#0B43A4"/>
<path d="M321.508 79.5607L352.577 62.0625L330.95 84.0203L321.508 79.5607Z" fill="#5193F4"/>
<path d="M307.458 72.2143L352.577 62.0625L315.862 76.0091L307.458 72.2143Z" fill="#5193F4"/>
<path d="M321.508 79.5607L319.658 85.3015L325.272 81.3445L321.508 79.5607Z" fill="#0056EC"/>
<path d="M315.343 84.0528C305.755 82.4311 292.743 92.1288 298.34 102.216C300.238 105.654 310.07 104.162 309.34 100.367C308.983 98.5508 306.76 97.7724 304.927 97.9832C294.219 99.2157 293.781 108.184 294.268 110.47C296.718 122.276 314.824 118.287 320.908 116.617" stroke="#C8DBFB" stroke-miterlimit="10" stroke-linecap="round" stroke-linejoin="round" stroke-dasharray="4 4"/>
</g>
<defs>
<clipPath id="clip0">
<rect width="770" height="657" fill="white"/>
</clipPath>
</defs>
</svg>
